<?xml version="1.0" encoding="UTF-8" standalone="no"?>
<!-- Created with Inkscape (http://www.inkscape.org/) -->

<svg
   xmlns:dc="http://purl.org/dc/elements/1.1/"
   xmlns:cc="http://creativecommons.org/ns#"
   xmlns:rdf="http://www.w3.org/1999/02/22-rdf-syntax-ns#"
   xmlns:svg="http://www.w3.org/2000/svg"
   xmlns="http://www.w3.org/2000/svg"
   xmlns:sodipodi="http://sodipodi.sourceforge.net/DTD/sodipodi-0.dtd"
   xmlns:inkscape="http://www.inkscape.org/namespaces/inkscape"
   viewBox="0 0 34.660417 39.6875"
   version="1.1"
   id="svg27"
   inkscape:version="0.92.3 (2405546, 2018-03-11)"
   sodipodi:docname="instagram.svg">
  <defs
     id="defs21" />
  <sodipodi:namedview
     id="base"
     pagecolor="#ffffff"
     bordercolor="#666666"
     borderopacity="1.0"
     inkscape:pageopacity="0.0"
     inkscape:pageshadow="2"
     inkscape:zoom="1.1103902"
     inkscape:cx="-200.39479"
     inkscape:cy="-18.200999"
     inkscape:document-units="mm"
     inkscape:current-layer="layer1"
     showgrid="false"
     inkscape:window-width="1366"
     inkscape:window-height="705"
     inkscape:window-x="-8"
     inkscape:window-y="-8"
     inkscape:window-maximized="1"
     units="px" />
  <metadata
     id="metadata24">
    <rdf:RDF>
      <cc:Work
         rdf:about="">
        <dc:format>image/svg+xml</dc:format>
        <dc:type
           rdf:resource="http://purl.org/dc/dcmitype/StillImage" />
        <dc:title></dc:title>
      </cc:Work>
    </rdf:RDF>
  </metadata>
  <g
     inkscape:label="Layer 1"
     inkscape:groupmode="layer"
     id="layer1"
     transform="translate(0,-257.3125)">
    <path
       id="path10"
       d="m 17.423801,264.3698 c 4.494976,0 5.028081,0.019 6.804229,0.0981 4.562297,0.20779 6.693333,2.37233 6.900976,6.90097 0.08112,1.77468 0.09703,2.30777 0.09703,6.80284 0,4.49633 -0.0159,5.02802 -0.09703,6.80271 -0.208916,4.52446 -2.334491,6.69344 -6.900976,6.90104 -1.776148,0.0811 -2.306441,0.0982 -6.804229,0.0982 -4.494983,0 -5.028093,-0.019 -6.802798,-0.0982 -4.573549,-0.20906 -6.693372,-2.38355 -6.9010086,-6.90237 -0.081392,-1.77475 -0.098199,-2.30645 -0.098199,-6.80284 0,-4.49494 0.018055,-5.0267 0.098199,-6.80278 0.2090234,-4.52724 2.334475,-6.69336 6.9010086,-6.90103 1.776105,-0.0798 2.307815,-0.0969 6.802798,-0.0969 z m 0,-3.03453 c -4.572145,0 -5.144539,0.019 -6.940289,0.1007 -6.1139621,0.28063 -9.51185596,3.67283 -9.79243808,9.79245 -0.0827705,1.79717 -0.10244268,2.36954 -0.10244268,6.94164 0,4.57216 0.0196194,5.14599 0.10101092,6.9417 0.28060316,6.11404 3.67286574,9.51187 9.79244284,9.79246 1.797151,0.0811 2.369546,0.1007 6.941689,0.1007 4.572101,0 5.145927,-0.019 6.941694,-0.1007 6.108373,-0.28065 9.514692,-3.67285 9.791053,-9.79246 0.08271,-1.79571 0.102334,-2.36954 0.102334,-6.9417 0,-4.5721 -0.02122,-5.14447 -0.100744,-6.94025 -0.275193,-6.10839 -3.671451,-9.51188 -9.791064,-9.79245 -1.797139,-0.083 -2.370913,-0.10261 -6.943067,-0.10261 z m 0,8.19027 c -4.774166,0 -8.6448437,3.87069 -8.6448437,8.64487 0,4.77418 3.8706777,8.64626 8.6448437,8.64626 4.774149,0 8.644852,-3.87069 8.644852,-8.64626 0,-4.77418 -3.870703,-8.64487 -8.644852,-8.64487 z m 0,14.2566 c -3.099067,0 -5.611713,-2.51126 -5.611713,-5.61173 0,-3.09909 2.512646,-5.61174 5.611713,-5.61174 3.099065,0 5.611717,2.51265 5.611717,5.61174 0,3.10047 -2.512652,5.61173 -5.611717,5.61173 z m 8.987176,-16.61772 c -1.11674,0 -2.021649,0.90489 -2.021649,2.02023 0,1.11534 0.904909,2.02023 2.021649,2.02023 1.115308,0 2.018785,-0.90489 2.018785,-2.02023 0,-1.11534 -0.903477,-2.02023 -2.018785,-2.02023 z"
       inkscape:connector-curvature="0"
       style="stroke-width:1.40292847" />
  </g>
</svg>
