<?xml version="1.0" encoding="UTF-8" standalone="no"?>
<!-- Created with Inkscape (http://www.inkscape.org/) -->

<svg
   xmlns:dc="http://purl.org/dc/elements/1.1/"
   xmlns:cc="http://creativecommons.org/ns#"
   xmlns:rdf="http://www.w3.org/1999/02/22-rdf-syntax-ns#"
   xmlns:svg="http://www.w3.org/2000/svg"
   xmlns="http://www.w3.org/2000/svg"
   xmlns:sodipodi="http://sodipodi.sourceforge.net/DTD/sodipodi-0.dtd"
   xmlns:inkscape="http://www.inkscape.org/namespaces/inkscape"
   width="350"
   height="250"
   viewBox="0 0 92.604162 66.145835"
   version="1.1"
   id="svg8"
   inkscape:version="0.92.3 (2405546, 2018-03-11)"
   sodipodi:docname="logo.svg">
  <defs
     id="defs2" />
  <sodipodi:namedview
     id="base"
     pagecolor="#ffffff"
     bordercolor="#666666"
     borderopacity="1.0"
     inkscape:pageopacity="0.0"
     inkscape:pageshadow="2"
     inkscape:zoom="1.1708154"
     inkscape:cx="19.044023"
     inkscape:cy="118.39671"
     inkscape:document-units="mm"
     inkscape:current-layer="layer1"
     showgrid="false"
     units="px"
     inkscape:window-width="1366"
     inkscape:window-height="705"
     inkscape:window-x="-8"
     inkscape:window-y="-8"
     inkscape:window-maximized="1"
     inkscape:lockguides="false" />
  <metadata
     id="metadata5">
    <rdf:RDF>
      <cc:Work
         rdf:about="">
        <dc:format>image/svg+xml</dc:format>
        <dc:type
           rdf:resource="http://purl.org/dc/dcmitype/StillImage" />
        <dc:title></dc:title>
      </cc:Work>
    </rdf:RDF>
  </metadata>
  <g
     inkscape:label="Layer 1"
     inkscape:groupmode="layer"
     id="layer1"
     transform="translate(0,-230.85415)">
    <g
       id="g168"
       transform="matrix(0.01118265,0,0,-0.01118265,-4.6205882,348.00859)"
       style="fill:#000000;stroke:none">
      <path
         style="fill:#008000;stroke-width:0.02077131"
         d="m -179.85938,23.248047 c 0.97626,0 0.97725,-2.78e-4 0.76954,0.560547 -0.13199,0.36297 -0.45598,1.471727 -0.76954,2.55664 v 4.986328 c 0.32241,-1.27569 1.02259,-3.985325 1.86915,-7.230468 l 0.22851,-0.873047 z m 11.17579,0 c 4.98511,0 9.11861,0.04049 9.16015,0.08203 0.0415,0.04154 0.0611,2.286058 0.0195,4.986328 l -0.0625,4.902344 h -10.38476 -9.90821 v 1.699219 c 0.69748,-0.01893 4.3654,-0.03906 9.70118,-0.03906 h 10.55078 l -0.041,2.638672 c -0.0208,1.474766 -0.0417,4.174794 -0.0625,6.023438 l -0.041,3.386718 h -11.42578 c -4.56364,0 -7.03317,-0.0093 -8.68165,-0.03906 v 0.86914 h 8.6211 11.50586 l -0.0625,1.392579 -0.0625,1.412109 h -3.46875 c -1.93173,0 -7.12401,-0.02095 -11.58985,-0.0625 l -4.94336,-0.02539 v 1.142579 c 1.9737,0.04638 5.48732,0.08789 9.88672,0.08789 h 10.22071 v 4.257813 c 0,3.240326 -0.0631,4.299013 -0.25,4.361328 -0.1454,0.04154 -5.62892,0.124474 -12.17188,0.166015 l -7.68555,0.06641 v 0.839843 c 2.12991,-0.02452 6.65099,-0.07648 11.0918,-0.0957 l 8.76563,-0.04102 0.10351,0.457031 c 0.0623,0.249257 0.0623,2.159196 0,4.236328 l -0.125,3.800781 -11.65234,-0.103515 c -3.13875,-0.03047 -6.00492,-0.06601 -8.1836,-0.101563 v 1.154297 c 2.27929,0.06276 6.3074,0.111328 10.59376,0.111328 h 9.30468 v 1.744141 1.724609 l -10.94531,0.1875 c -4.43041,0.0609 -6.79393,0.100359 -8.95313,0.136719 v 0.980469 c 2.43329,-0.06176 7.68462,-0.141823 11.96485,-0.16211 l 7.93359,-0.04102 v 4.111328 c 0,2.928755 -0.0611,4.176338 -0.24804,4.363281 -0.18695,0.186943 -0.18695,0.248047 0,0.248047 0.18693,0 0.24804,0.62308 0.24804,2.160156 v 2.140625 l -1.39062,0.123047 c -0.78932,0.08308 -1.95322,0.146484 -2.63867,0.146484 -0.99702,0 -1.18394,-0.06325 -1.08008,-0.3125 0.0623,-0.16617 0.0414,-0.310546 -0.0625,-0.310546 -0.10386,0 -0.29015,0.144376 -0.43555,0.310546 -0.20771,0.249253 -0.93437,0.3125 -4.0293,0.3125 -2.05636,0.02077 -6.08668,0.103172 -8.95312,0.207032 -0.59379,0.02048 -0.82042,0.01267 -1.3086,0.02539 v 1.685547 l 4.54883,0.05469 c 4.73586,0.06231 10.11496,0.166201 11.98438,0.228515 l 3.36523,0.125 v 5.794922 5.794919 h -4.61133 c -4.1958,0 -4.56848,-0.0198 -4.17382,-0.31055 0.56082,-0.39465 1.39149,-1.53695 1.24609,-1.70312 -0.0623,-0.0623 -0.602,0.35324 -1.18359,0.91406 -1.05934,1.03857 -1.0812,1.0382 -2.76368,1.18359 -0.9347,0.0623 -2.13892,0.125 -2.6582,0.125 h -0.95508 l -0.47851,-1.51757 c -0.24926,-0.81009 -0.60141,-1.641183 -0.76758,-1.828126 -0.16617,-0.207711 -0.77016,-0.394717 -1.41406,-0.457031 -0.72755,-0.07716 -1.46606,-0.308205 -2.13868,-0.640625 v 11.484372 l 9.78321,0.125 c 5.40054,0.0831 9.90857,0.16549 10.0332,0.20703 0.1454,0.0415 0.24876,1.03931 0.26953,2.86719 l 0.041,2.80273 -2.13867,0.125 c -1.18397,0.0623 -4.7151,0.16692 -7.85157,0.25 -3.13646,0.0623 -6.79296,0.18645 -8.10156,0.26953 -0.90461,0.0574 -1.58442,0.0715 -2.03516,0.0625 v 0.96485 c 0.3237,-0.11688 1.07593,-0.18173 2.92969,-0.2793 4.09195,-0.20771 10.9252,-0.43697 14.43555,-0.47851 l 2.74219,-0.041 v 4.96484 4.98438 l -5.85743,-0.125 c -6.35602,-0.12463 -6.3985,-0.12463 -6.85546,-1.30859 l -0.20704,-0.51954 -0.375,0.47852 c -0.22848,0.27003 -0.43644,0.37463 -0.51953,0.25 -0.24925,-0.41543 -0.56017,-0.20874 -0.43554,0.31055 l 0.125,0.51953 h -2.18164 c -1.20474,0 -2.17969,-0.0424 -2.17969,-0.084 0,-0.0208 -0.22997,-0.99554 -0.5,-2.11718 -0.452,-1.80799 -0.8665,-3.65422 -1.1211,-4.91016 v 5.61523 l 0.33204,1.28907 -0.33204,-0.004 v 1.06836 c 0.3217,0.0277 0.52856,0.0603 0.56055,0.0977 0.18694,0.22848 0.70737,1.95278 0.60352,2.05664 -0.0183,0.0183 -0.5265,0.0836 -1.16407,0.16015 v 0.70703 c 0.25795,-0.017 0.88414,-0.0815 0.97657,-0.0781 0.45697,0.0415 0.60255,0.29151 1.37109,2.63867 1.18396,3.57267 1.43316,4.23729 2.16016,6.08594 0.35311,0.89317 0.64453,1.6813 0.64453,1.78515 0,0.29402 -2.26778,0.40258 -5.15235,0.32813 v 1.06836 c 0.43072,-0.0463 0.92147,-0.10398 1.1211,-0.10742 0.5816,-0.0208 1.9126,0.0412 2.95117,0.10351 1.1632,0.0831 1.91016,0.22765 1.91016,0.37305 0,0.12463 0.89255,1.99479 1.97265,4.17578 1.08011,2.16022 1.93289,3.94727 1.91211,3.94727 -0.0208,0.0208 -1.86926,0.28999 -4.09179,0.60156 -2.22253,0.33234 -4.36316,0.64472 -4.75782,0.70703 -0.32676,0.0396 -0.53798,0.0246 -1.01758,-0.35156 v 1.57226 c 0.0562,0.004 0.1099,-0.002 0.16602,0.004 1.03857,0.10386 1.37138,0.29105 3.42774,1.82812 1.26705,0.93471 3.03261,2.15988 3.92578,2.72071 0.91393,0.56083 1.63991,1.10193 1.61914,1.22656 -0.0623,0.24926 -0.93344,0.29027 -1.09961,0.041 -0.0831,-0.10386 -0.43685,-0.0824 -0.87305,0.0215 -0.41543,0.12463 -0.78925,0.16583 -0.85156,0.10352 -0.0623,-0.0623 -0.93462,-0.125 -1.93164,-0.125 -2.29857,0.0166 -3.21299,-0.2689 -4.38282,-1.71289 v 1.74414 c 0.17194,0.27718 0.15983,0.37881 0,0.3496 v 2.15821 c 0.14208,0.0779 0.28708,0.15422 0.41602,0.20312 0.68583,0.28241 0.31489,0.26732 -0.41602,0.0996 v 1.45117 c 0.41949,0.22352 0.76845,0.43412 0.72657,0.48438 -0.0896,0.0796 -0.41403,0.0449 -0.72657,-0.0332 v 0.29492 c 2.16841,0.55698 5.35626,1.27297 6.60547,1.4414 0.97626,0.10386 2.80451,0.35337 4.05079,0.51954 1.26705,0.16617 4.42311,0.47712 7.01953,0.66406 4.11271,0.33234 5.25579,0.33271 8.72461,0.125 4.79817,-0.2908 7.97551,-0.68601 11.98437,-1.4961 3.4065,-0.68545 5.08988,-1.16195 9.24414,-2.63671 3.4065,-1.20474 4.00936,-1.49613 3.65625,-1.72461 -0.18694,-0.10386 -0.16722,-0.18645 0.082,-0.26953 0.18695,-0.0831 0.2713,-0.0621 0.20899,0.0625 -0.2908,0.45696 0.80946,-0.0428 3.28125,-1.51758 0.89317,-0.54006 2.01444,-1.05897 2.49218,-1.1836 1.55785,-0.41542 4.52902,-1.45476 5.08985,-1.78711 0.31157,-0.16617 0.41422,-0.26934 0.24804,-0.20703 -0.16617,0.0415 -1.32794,0.43614 -2.57421,0.85156 -1.24629,0.41543 -2.39047,0.70685 -2.55664,0.64454 -0.1454,-0.0623 -0.5812,0.0625 -0.95508,0.29101 -0.74777,0.45697 -1.41193,0.5399 -1.34961,0.16602 0.0415,-0.16617 -0.16555,-0.22904 -0.66406,-0.1875 -0.93471,0.0831 -0.83232,-4.7e-4 1.0371,-0.81055 0.85163,-0.37388 2.47211,-1.12082 3.59376,-1.68164 1.10088,-0.56083 2.01562,-0.97709 2.01562,-0.93555 0,0.0623 -0.83057,0.72756 -1.86914,1.4961 -1.0178,0.78931 -1.80717,1.45455 -1.76563,1.49609 0.10386,0.12463 1.59918,-0.93524 3.63477,-2.57617 1.57862,-1.26705 5.89831,-4.0293 6.29297,-4.0293 0.20771,0 0.18747,0.91326 -0.041,1.51563 -0.10385,0.2908 -0.51869,0.87239 -0.89257,1.30859 l -0.68555,0.81055 0.87109,-0.68555 c 0.97625,-0.76854 1.82828,-2.30568 1.66211,-3.07422 -0.0831,-0.43619 0.0831,-0.64391 1.08008,-1.30859 0.64391,-0.4362 1.82788,-0.99755 2.61719,-1.26758 2.45101,-0.81008 6.52269,-2.78271 6.27343,-3.05273 -0.0623,-0.0416 -0.45709,0.1245 -0.91406,0.39453 -0.91394,0.58159 -2.99188,1.49581 -4.63281,2.05664 l -1.14258,0.39453 0.54102,-0.47852 c 0.2908,-0.24925 1.2677,-1.03791 2.18164,-1.74414 0.89317,-0.70622 2.57437,-2.11768 3.71679,-3.15625 2.180992,-1.97327 2.388676,-2.01596 2.388676,-0.60351 0,0.51928 -0.165176,0.95637 -0.539062,1.39257 -0.290794,0.35311 -0.394684,0.60138 -0.228514,0.53907 0.1454,-0.0623 0.519035,-0.41518 0.789061,-0.78907 0.394654,-0.54005 0.498047,-0.91331 0.498047,-1.97265 l 0.02148,-1.28906 1.453125,-1.51563 c 0.810081,-0.81008 1.827472,-1.9104 2.263672,-2.42969 0.685453,-0.7893 3.427734,-2.51327 3.427734,-2.16015 0,0.16617 -2.430587,3.32195 -3.822265,4.96289 -0.685453,0.78931 -1.016836,1.26755 -0.767579,1.03906 0.560825,-0.47774 3.509922,-4.06982 4.652344,-5.64844 0.436196,-0.60237 1.164125,-1.3722 1.621094,-1.74609 0.456973,-0.35311 0.788877,-0.70526 0.726562,-0.76758 -0.06231,-0.0623 -0.270799,0.0194 -0.478515,0.18555 -0.311567,0.24926 -0.332186,0.25049 -0.166016,-0.0195 0.08309,-0.16617 0.353547,-0.58296 0.582031,-0.89453 0.207712,-0.33234 0.35333,-0.62128 0.291016,-0.6836 -0.04154,-0.0623 -0.456378,0.47666 -0.892578,1.16211 -0.602366,0.93471 -1.102739,1.41288 -1.933594,1.89063 -0.602366,0.35311 -1.140811,0.58184 -1.203125,0.51953 -0.06231,-0.0623 0.538816,-0.93462 1.328125,-1.93164 0.789309,-0.99703 1.662852,-2.13979 1.912109,-2.51368 0.560825,-0.81008 0.95579,-0.76959 0.976563,0.082 0.06231,1.49553 0.04142,1.45501 0.394531,0.99804 0.16617,-0.20771 0.310547,-0.60302 0.310547,-0.87304 0,-0.24926 0.727218,-1.70369 1.599609,-3.19922 0.872396,-1.51631 2.118524,-3.883 2.783204,-5.25391 0.851623,-1.76556 1.392115,-2.65932 1.890625,-3.0332 0.997024,-0.78931 1.889913,-2.15972 1.86914,-2.88672 0,-0.35311 -0.124129,-0.93542 -0.269531,-1.33008 -0.249257,-0.66468 -0.207586,-0.78968 0.914062,-2.74219 1.453994,-2.57564 1.826978,-3.57267 2.533204,-6.54296 0.373885,-1.55785 0.788939,-2.69861 1.183593,-3.36329 0.726999,-1.142415 0.852556,-2.411295 0.3125,-3.013665 -0.290798,-0.311567 -0.312658,-0.580575 -0.146484,-1.619141 0.103856,-0.66468 0.37379,-2.679752 0.623047,-4.445312 0.228484,-1.765561 0.521144,-3.552612 0.625,-3.947266 0.103856,-0.415427 0.289434,-1.412049 0.414062,-2.263672 0.124625,-0.83085 0.374846,-1.786089 0.541016,-2.097656 0.228484,-0.373886 0.311603,-0.789841 0.228516,-1.267578 -0.08308,-0.394654 -0.167443,-2.80326 -0.208985,-5.378906 -0.08309,-4.133491 -0.436325,-8.080515 -0.914062,-9.970703 l -0.123047,-0.519532 -0.146484,0.519532 -0.125,0.519531 -0.123047,-0.478516 c -0.08309,-0.311567 -0.04241,-0.517768 0.144531,-0.580078 0.332344,-0.124629 0.06315,-1.308285 -0.373047,-1.640625 -0.16617,-0.124629 -0.291727,-0.790801 -0.3125,-1.808594 -0.103856,-3.80115 -3.365205,-13.293069 -7.0625,-20.521484 -3.680128,-7.204757 -7.867847,-13.214402 -13.326172,-19.109375 h -49.070309 c 2.03559,0 2.30509,0.04089 2.6582,0.435547 0.47775,0.540056 1.78612,1.226562 2.32618,1.226562 0.20771,0 0.47888,-0.103887 0.60351,-0.228515 0.33234,-0.33234 2.11793,0.767672 2.36719,1.453125 0.18694,0.477737 1.43381,5.15182 1.72461,6.501953 0.12462,0.560828 0.10339,0.582031 -0.81055,0.582031 -0.51928,0 -1.16357,-0.147041 -1.43359,-0.333984 -0.27003,-0.16617 -1.05869,-0.331506 -1.74414,-0.373047 -1.10088,-0.06231 -1.32943,-0.14478 -1.76563,-0.664063 -0.27002,-0.33234 -0.53996,-0.768846 -0.62304,-0.976562 -0.0623,-0.186943 -0.22818,-0.353516 -0.33204,-0.353516 -0.12462,0 -0.16583,0.14633 -0.10351,0.3125 0.1454,0.373882 -0.0844,0.394129 -0.66602,0.04102 -1.26705,-0.747768 -2.36719,-2.160282 -2.36719,-3.074219 -0.0208,-0.623139 -0.51885,-1.349918 -0.72656,-1.017578 -0.0623,0.10386 -0.20864,0.16583 -0.3125,0.103515 -0.0831,-0.04155 -0.26937,0.18595 -0.43554,0.539063 -0.22849,0.560824 -0.20735,0.749192 0.125,1.351563 0.18693,0.373881 0.49718,0.726748 0.64257,0.789062 0.16618,0.06231 0.29102,0.372734 0.29102,0.705078 0,0.311567 0.10317,0.68716 0.20703,0.791016 0.12463,0.124628 0.24947,0.456537 0.29102,0.726562 0.0831,0.747768 0.3532,1.22461 0.68554,1.22461 0.16617,0 0.22833,-0.08241 0.16602,-0.207032 -0.0623,-0.124628 0.0213,-0.146298 0.1875,-0.08398 1.03856,0.394654 -0.29043,0.5 -6.41797,0.5 h -6.73047 l -0.0625,-4.902344 c -0.0415,-2.70027 -0.0201,-4.944786 0.0215,-4.986328 0.16617,-0.166174 8.5371,-0.0607 8.53711,0.105469 0,0.207711 -0.9766,0.49696 -1.20508,0.351562 -0.0831,-0.04154 -0.18626,0.125217 -0.20703,0.416016 -0.0208,0.27003 0.0831,0.498763 0.22851,0.519531 0.727,0.04155 1.10107,0.20815 1.3711,0.582032 0.24925,0.394654 0.3115,0.395025 0.85156,0.125 0.45697,-0.228485 1.0168,-0.270398 1.84765,-0.125 0.0416,0.02077 -0.0199,0.145618 -0.14453,0.291015 -0.16617,0.186943 -0.12621,0.331877 0.12305,0.498047 0.31157,0.186943 0.35351,0.144654 0.35351,-0.25 -0.0415,-0.623139 -0.60196,-1.391491 -0.95507,-1.246094 -0.27003,0.08309 -0.81055,-0.705852 -0.81055,-1.183594 0,-0.08308 1.01864,-0.166015 2.24414,-0.166015 z m 34.23632,4.574219 c 0.11425,-0.01558 0.28429,0.11021 0.42969,0.390625 0.16617,0.290794 0.14645,0.455639 -0.082,0.642578 -0.16617,0.145401 -0.3125,0.18784 -0.3125,0.08398 0,-0.103856 -0.0627,-0.394032 -0.125,-0.664062 -0.0831,-0.280413 -0.0244,-0.437547 0.0898,-0.453125 z m 3.98633,1.070312 c 0.33165,0.02637 0.48691,0.254156 0.68164,0.773438 0.35311,0.851623 0.97657,3.136595 0.97657,3.53125 0,0.16617 -0.37547,0.186598 -1.18555,0.103515 -1.39168,-0.16617 -2.13867,-0.725786 -2.13867,-1.55664 0,-0.311572 -0.0824,-0.644717 -0.20703,-0.707032 -0.37389,-0.228484 -0.2075,-0.726934 0.29101,-0.851562 0.5816,-0.145397 0.85045,-0.623078 0.47656,-0.851563 -0.16617,-0.103855 -0.0628,-0.207928 0.26953,-0.291015 0.37389,-0.10905 0.63695,-0.166213 0.83594,-0.150391 z m 3.67188,0.794922 c 0,0 -0.0197,0.186294 -0.082,0.435547 -0.0831,0.311571 -0.18735,0.35367 -0.35352,0.1875 -0.16617,-0.16617 -0.14645,-0.270614 0.082,-0.416016 0.16617,-0.103855 0.33275,-0.207031 0.35352,-0.207031 z m -30.09766,5.191406 h 9.66016 c 8.32929,0 9.67776,0.04247 9.90625,0.3125 0.14539,0.16617 0.33364,0.310547 0.4375,0.310547 0.10385,0 0.18554,-0.144377 0.18554,-0.310547 0,-0.16617 0.14705,-0.3125 0.33399,-0.3125 0.20771,0 0.29083,0.124846 0.22851,0.291016 -0.0623,0.16617 0.0194,0.416387 0.18555,0.541016 0.16617,0.145397 0.29102,0.374129 0.29102,0.519531 0,0.124628 0.18753,0.456537 0.41601,0.726562 0.27003,0.311572 0.41602,0.374443 0.41602,0.1875 0,-0.228484 0.0409,-0.229726 0.20703,0.01953 0.1454,0.228485 0.20703,0.145525 0.20703,-0.394531 0,-1.225504 0.24882,-0.539429 0.72656,1.953125 l 0.45703,2.410156 -0.51757,0.394532 c -0.2908,0.228484 -0.89389,0.477459 -1.33008,0.560547 -0.8724,0.124628 -1.26709,0.560332 -1.53711,1.578125 -0.0831,0.394654 -0.37311,0.706351 -0.83008,0.914062 -0.56082,0.27003 -0.72783,0.518755 -0.93555,1.34961 l -0.26953,0.998046 h -8.99414 -8.99414 v -0.998046 c 0,-0.540056 -0.0627,-3.240085 -0.125,-6.023438 z m 24.36328,0.02539 c 0.10483,-0.02369 0.25647,-0.0032 0.45899,0.01758 0.60237,0.06231 0.66387,0.124718 0.60156,0.685547 -0.0415,0.33234 -0.16568,0.704734 -0.26953,0.808594 -0.31157,0.33234 -0.22811,1.725696 0.125,1.871093 0.37388,0.145398 0.39412,0.5386 0.041,1.03711 -0.22848,0.33234 -0.3319,0.104321 -0.72656,-1.806641 -0.4362,-2.071935 -0.54496,-2.542205 -0.23047,-2.613281 z m 48.404299,9.958984 c 0.0516,-0.06426 0.186338,0.205082 0.451172,0.859375 0.186943,0.4362 0.291542,0.789063 0.25,0.789063 -0.145401,0 -0.726562,-1.20458 -0.726562,-1.47461 0,-0.09347 0.0082,-0.152408 0.02539,-0.173828 z m 1.011719,0.878907 c 0,-0.06231 0.396547,0.457836 0.853516,1.164062 0.477737,0.706226 0.808408,1.329027 0.746094,1.412109 -0.228485,0.207716 -0.539311,-0.166172 -1.058594,-1.308593 -0.290799,-0.643912 -0.541016,-1.226037 -0.541016,-1.267578 z m -73.529298,2.015624 h 8.72461 c 4.79818,0 8.72266,0.06216 8.72266,0.166016 0,0.08309 -0.16534,0.250372 -0.37305,0.375 -0.20771,0.145397 -0.49985,0.643352 -0.66602,1.121094 -0.16617,0.477741 -0.39419,0.912821 -0.49804,0.933594 -0.12463,0.04154 -3.75894,0.125185 -8.0586,0.1875 l -7.85156,0.125 V 49.21289 Z m 75.669923,2.322266 c 0.257288,-0.06503 0.630805,0.529627 1.703125,2.601563 1.16319,2.264074 1.745132,3.88325 2.513672,7.082031 0.373881,1.620163 -0.16645,1.059055 -0.748047,-0.748047 -0.249257,-0.76854 -0.872584,-2.241973 -1.371094,-3.259766 -1.10088,-2.284843 -2.346569,-5.463973 -2.201171,-5.609375 0.03375,-0.03375 0.06676,-0.05712 0.103515,-0.06641 z m -75.669923,1.625 h 7.49805 7.49805 l -0.14454,0.933594 c -0.0623,0.519283 -0.0628,0.915304 0.041,0.894531 0.0831,-0.02077 0.49792,0.249161 0.89258,0.623047 0.62314,0.581593 0.68551,0.726965 0.45703,1.080078 -0.2908,0.49851 -0.33182,1.246094 -0.041,1.246094 0.2908,0 0.83203,1.39109 0.83203,2.201172 0,0.373881 -0.0844,0.914279 -0.20898,1.205078 l -0.20703,0.539062 h -7.99805 c -6.68836,0 -8.07887,-0.04176 -8.32812,-0.291015 -0.22849,-0.249253 -0.29102,-1.121002 -0.29102,-4.361328 z m 80.406251,8.828125 0.269531,0.830078 c 0.145398,0.456969 0.332929,1.16394 0.416016,1.558594 l 0.123047,0.726563 -0.289063,-0.726563 c -0.145401,-0.394654 -0.334174,-1.101625 -0.396484,-1.558594 z m -80.406251,0.726563 h 8.20508 8.20312 v 0.623046 c 0,0.415428 -0.22805,0.893538 -0.72656,1.433594 l -0.72656,0.789063 0.43555,0.394531 c 0.62313,0.560829 1.08075,1.515842 0.87304,1.806641 -0.10385,0.145397 -0.1653,0.581908 -0.14453,0.976562 0.0208,0.394654 0.0417,0.97678 0.0625,1.267578 0.0208,0.33234 0.18648,0.622181 0.49805,0.767578 0.35311,0.166175 -0.58123,0.228516 -3.80078,0.228516 -2.34716,0.02077 -6.19067,0.08293 -8.5586,0.166016 l -4.32031,0.125 v -4.279297 z m 0,9.533203 9.8457,0.0625 9.82422,0.0625 0.70703,0.664062 c 0.37389,0.373882 0.78873,0.685547 0.89258,0.685547 0.47774,0 2.09797,2.139945 1.76563,2.347656 -0.0415,0.02077 -2.65846,-0.02167 -5.79492,-0.08398 -3.13647,-0.08309 -8.30956,-0.145247 -11.4668,-0.166016 l -5.77344,-0.01953 v -1.765625 z m 0,4.591797 h 6.70899 c 3.67652,0 8.86985,0.06145 11.50781,0.144531 4.0504,0.103856 4.77641,0.166047 4.46484,0.394531 -0.18694,0.145402 -0.51814,0.291016 -0.70508,0.291016 -0.37388,0 -0.47761,0.310672 -0.39453,1.224609 0.0416,0.519283 -0.93471,2.097656 -1.30859,2.097656 -0.12463,0 -0.45725,-0.331908 -0.74805,-0.726562 -0.2908,-0.394654 -0.60193,-0.726563 -0.72656,-0.726563 -0.10386,0 -0.39527,-0.248979 -0.64453,-0.560546 l -0.45703,-0.560547 -1.10157,0.560547 c -0.62313,0.311567 -1.28766,0.560546 -1.4746,0.560546 -0.20772,0 -0.97685,0.269934 -1.72461,0.623047 -0.74777,0.33234 -1.47374,0.623047 -1.61915,0.623047 -0.14539,0 -0.4995,0.166573 -0.76953,0.353516 -0.29079,0.207711 -0.53853,0.33132 -0.58007,0.310547 -0.16617,-0.16617 -1.4961,1.102491 -1.4961,1.414062 0,0.373882 -1.01729,1.037109 -1.57812,1.037109 -0.24926,0 -0.70703,0.602491 -0.70703,0.914063 0,0.06231 0.18753,0.125 0.41601,0.125 0.60237,0 0.5182,0.705512 -0.14648,1.287109 -0.33234,0.249258 -0.70545,0.727496 -0.83008,1.039063 -0.16617,0.373886 -0.41552,0.582031 -0.68555,0.582031 -0.27002,0 -0.37481,0.08312 -0.3125,0.228516 0.0831,0.124628 -0.0398,0.269717 -0.28906,0.332031 -0.24926,0.06231 -0.4375,0.249134 -0.4375,0.394531 0,0.16617 -0.14438,0.353702 -0.31055,0.416016 -0.49851,0.207711 -0.35326,0.560701 0.16602,0.394531 0.24926,-0.06231 0.91378,-0.228175 1.47461,-0.332031 1.01779,-0.207712 1.6196,-0.727276 2.42969,-2.056641 0.18694,-0.311571 0.66483,-0.643665 1.14257,-0.789062 0.66468,-0.207716 0.85249,-0.187283 1.16407,0.103515 0.20771,0.186943 0.37304,0.456877 0.37304,0.623047 0,0.436196 1.26752,1.101563 2.11914,1.101563 0.41543,0 0.83098,0.103887 0.91407,0.228515 0.0831,0.145398 0.2486,-0.0416 0.43554,-0.457031 0.4362,-1.038566 1.45461,-1.496897 1.95313,-0.894531 0.27002,0.311571 1.84765,0.396267 1.84765,0.105469 0,-0.103856 -0.35215,-0.499166 -0.76757,-0.873047 -0.78931,-0.685453 -0.91453,-1.204987 -0.41602,-1.828125 0.12463,-0.145402 0.3324,-0.477306 0.45703,-0.726563 0.22849,-0.477737 2.05708,-1.557356 2.63867,-1.578125 0.18695,0 0.70567,-0.228732 1.1211,-0.519531 0.87239,-0.60237 1.12109,-0.64518 1.12109,-0.208984 0,0.16617 0.14633,0.3125 0.3125,0.3125 0.18694,0 0.31055,-0.208672 0.31055,-0.541016 0,-0.353113 0.12521,-0.580268 0.41601,-0.642578 0.47774,-0.124629 0.5612,-0.478516 0.125,-0.478516 -0.1454,0 -0.56147,-0.144377 -0.87304,-0.310547 l -0.60157,-0.3125 h 0.8711 c 0.64391,0 0.93467,-0.103732 1.08008,-0.394531 0.24925,-0.4362 1.12152,-0.727958 1.70312,-0.541015 0.31157,0.103855 0.39648,0.333548 0.39648,1.060546 0,0.66468 -0.084,0.914063 -0.3125,0.914063 -0.31156,0 -0.83147,0.789619 -0.64453,0.976562 0.0623,0.06231 0.25056,-0.0011 0.4375,-0.146484 0.18695,-0.145397 0.37395,-0.206846 0.45703,-0.144531 0.12463,0.145397 -0.2921,9.077259 -0.4375,9.222656 -0.0415,0.04154 -2.76181,-0.02186 -6.06445,-0.146484 -3.30263,-0.10386 -7.95576,-0.207032 -10.36523,-0.207032 -2.3887,0 -5.42045,-0.0634 -6.6875,-0.146484 l -2.34766,-0.123047 v -6.523437 z m 51.16016,2.097656 c 0.0831,-0.02077 0.14453,0.18629 0.14453,0.435547 0,0.540051 -0.72678,1.828125 -1.01758,1.828125 -0.31157,0 -0.47746,0.66521 -0.56055,2.576172 -0.0831,1.640931 -0.0623,1.827382 0.22852,1.578125 0.16617,-0.145398 0.31055,-0.165645 0.31055,-0.04102 0,0.103856 0.16728,0.186789 0.375,0.166016 0.31157,-0.02077 0.35333,0.165518 0.29101,1.74414 -0.0415,0.976252 -0.18787,1.869512 -0.3125,1.994141 -0.20771,0.186943 -10.92467,0.934835 -13.16797,0.914062 -0.72699,0 -0.66502,-1.101656 0.10352,-1.787109 0.33234,-0.311567 0.43499,-0.497335 0.24805,-0.476563 -0.83086,0.08308 -0.83008,0.0621 -0.83008,-2.908203 0,-3.261094 -0.18704,-2.949435 1.93164,-3.240234 0.9347,-0.145402 0.97656,-0.124937 0.97656,0.332031 0,0.373882 0.0629,0.414747 0.1875,0.207032 0.1454,-0.228485 0.28931,-0.206629 0.80859,0.146484 0.60237,0.436196 0.62466,0.43567 0.72852,0.04102 0.0831,-0.353113 0.24944,-0.394346 1.37109,-0.332032 0.97626,0.06231 1.26563,0.0195 1.26563,-0.208984 0,-0.16617 0.2092,-0.289063 0.5,-0.289063 0.64391,0 1.16211,-0.207778 1.16211,-0.457031 0,-0.311571 0.56042,-0.791016 0.95508,-0.791016 0.20771,0 0.56057,-0.186815 0.78906,-0.394531 0.33234,-0.311567 2.3693,-0.912481 3.51172,-1.037109 z m -23.10352,1.339844 c 0.0516,-0.0013 0.11352,0.01048 0.19141,0.03125 0.22848,0.06231 0.47942,0.206165 0.5625,0.351562 0.0831,0.124629 0.14524,0.416047 0.16601,0.644531 0,0.33234 0.12382,0.395057 0.60157,0.353516 0.31157,-0.04154 0.7486,0.06235 0.93554,0.228516 0.18695,0.16617 0.82927,0.560763 1.43164,0.851562 0.68546,0.353113 1.08185,0.663904 1.01953,0.830078 -0.12462,0.33234 0.26991,0.955387 0.39454,0.623047 0.20771,-0.477741 0.62311,-0.872176 1.08007,-1.017578 0.45697,-0.124624 0.45704,-0.123414 0.45704,2.369141 v 2.511718 h -0.81055 c -0.45697,0 -0.89277,-0.103175 -0.95508,-0.207031 -0.0623,-0.124628 -0.23013,-0.207031 -0.33398,-0.207031 -0.47775,0 0.43796,0.601594 1.24804,0.830078 0.85163,0.228484 0.87091,0.25028 0.8086,0.998047 l -0.0625,0.767578 h -1.34961 c -1.22551,0 -1.3498,-0.0416 -1.41211,-0.457031 -0.10386,-0.685453 -1.66261,-1.849451 -2.70117,-2.015625 -1.08011,-0.16617 -1.01653,0.04216 0.20898,0.644531 0.49851,0.249257 1.14155,0.790177 1.45313,1.164063 l 0.56054,0.705078 -1.08008,0.146484 c -0.60237,0.06231 -1.51658,0.125 -2.05664,0.125 -1.18396,0 -1.09991,0.559022 -0.76757,-5.402344 0.12462,-2.222529 0.2278,-4.256606 0.20703,-4.505859 0,-0.249258 0.0483,-0.359386 0.20312,-0.363281 z m 29.556642,1.292968 c 0.341916,0.186011 1.724067,1.627659 1.978516,2.082032 0.16617,0.311571 0.16617,0.80909 0,1.847656 -0.124628,0.768536 -0.248758,1.78646 -0.269531,2.222656 -0.02077,0.726999 -0.08175,0.831165 -0.642578,0.976563 -0.581598,0.145401 -6.398619,0.624098 -6.460939,0.541015 -0.0208,-0.02077 0.0824,-1.268137 0.20703,-2.763672 0.16617,-1.890189 0.35355,-2.865637 0.58203,-3.21875 0.68546,-0.997024 1.20508,-1.538315 1.20508,-1.289062 0,0.456969 1.22582,0.541139 2.28516,0.146484 0.581595,-0.207716 1.039061,-0.457928 1.039061,-0.541015 0,-0.03116 0.02733,-0.03048 0.07617,-0.0039 z m 0.941407,8.580078 c 0.446907,0.01363 0.399694,0.09063 0.166015,0.355469 -0.311567,0.353113 -0.312623,0.456817 0.08203,1.47461 0.228484,0.623138 0.395057,1.143289 0.353515,1.164062 -0.04154,0.04154 -1.515689,-0.103547 -3.281249,-0.332031 -1.76556,-0.207716 -3.38532,-0.373758 -3.57226,-0.394531 -0.2908,0 -0.375,-0.18812 -0.375,-0.832032 0,-0.49851 0.10336,-0.892052 0.26953,-0.933593 0.31157,-0.124629 4.23884,-0.458459 5.73437,-0.5 0.270027,-0.0052 0.474078,-0.0065 0.623047,-0.002 z m -8.080079,0.605469 v 0.748047 0.767578 l -1.08008,-0.125 c -0.60237,-0.08308 -2.55475,-0.227649 -4.32031,-0.373047 -1.76556,-0.124628 -3.36508,-0.291201 -3.53125,-0.353515 -0.27003,-0.103856 5.10941,-0.539964 7.95508,-0.623047 z m -19.40039,1.039063 c 3.1157,0 3.63514,0.04124 3.75977,0.332031 0.12462,0.353113 -0.24985,10.448346 -0.41602,10.593746 -0.0415,0.0623 -0.35249,-0.0206 -0.66406,-0.16601 -0.68546,-0.31157 -1.55946,-2.14038 -1.41407,-2.929689 0.12463,-0.643912 -0.4361,-1.599361 -0.62304,-1.080078 -0.20772,0.49851 -0.56055,0.374566 -0.56055,-0.207032 0,-0.394654 -0.10426,-0.520061 -0.35351,-0.478515 -0.2908,0.04154 -0.35209,-0.06185 -0.31055,-0.498047 0.0415,-0.373881 -0.0823,-0.643851 -0.37305,-0.851562 -0.27003,-0.186943 -0.3741,-0.416047 -0.29101,-0.644532 0.0831,-0.228484 0.0195,-0.332031 -0.20899,-0.332031 -0.20771,0 -0.58029,-0.24898 -0.87109,-0.560547 l -0.5,-0.541016 -0.66406,0.478516 -0.64454,0.476563 0.14649,-1.619141 c 0.0831,-0.913937 0.18573,-1.702781 0.24805,-1.806641 0.0623,-0.08308 1.74619,-0.166015 3.74023,-0.166015 z m 5.89844,0.185547 1.20508,0.125 c 0.64391,0.06231 3.61368,0.291762 6.58398,0.541015 2.9703,0.228485 5.44283,0.456501 5.48438,0.498047 0.29079,0.290799 -2.30528,13.065198 -2.72071,13.314458 -0.10385,0.0623 -2.12035,-0.0835 -4.48828,-0.35352 l -4.29883,-0.45703 -0.83008,-0.87305 c -0.45696,-0.47774 -0.95616,-0.91353 -1.10156,-0.95508 -0.22848,-0.0831 -0.22867,-0.87171 -0.0625,-4.132809 0.12463,-2.222533 0.22852,-4.881882 0.22852,-5.878906 z m -11.63282,0.02148 v 1.058594 c 0,0.60237 -0.0824,0.997149 -0.20703,0.914062 -0.10386,-0.06231 -0.14434,-0.247888 -0.082,-0.414062 0.0623,-0.16617 -0.084,-0.417099 -0.3125,-0.5625 -0.24925,-0.145397 -0.43554,-0.372177 -0.43554,-0.517578 0,-0.124629 -0.31291,-0.292443 -0.66602,-0.333985 -0.41543,-0.04154 -0.22824,-0.08274 0.51953,-0.103515 z m -14.08203,0.207031 -0.125,0.623047 c -0.0623,0.33234 -0.18573,0.914465 -0.24804,1.267578 -0.10386,0.519283 -0.20868,0.624099 -0.54102,0.541016 -0.60236,-0.16617 -1.16391,0.517734 -1.33008,1.660156 -0.0623,0.540052 -0.24789,1.142424 -0.41406,1.308594 -0.1454,0.186943 -0.39562,0.872429 -0.54101,1.537109 -0.16618,0.789309 -0.41481,1.309677 -0.66407,1.455078 -0.81008,0.456969 -2.09765,1.412491 -2.09765,1.537101 -0.0208,0.0831 -0.22926,0.47644 -0.47852,0.8711 -0.24925,0.39465 -0.45703,0.81145 -0.45703,0.89453 0,0.0831 -0.99715,0.12429 -2.22266,0.10351 -2.18098,-0.0623 -2.24343,-0.084 -2.22265,-0.54101 0,-0.24926 0.0222,-2.843967 0.043,-5.751949 l 0.041,-5.277344 2.03516,-0.08203 c 1.10088,-0.02077 3.6361,-0.08274 5.60937,-0.103516 z m 4.42383,0 c 2.57564,0 2.59608,0.0015 2.7207,0.5 0.0623,0.290799 0.24985,0.560737 0.41602,0.623047 0.1454,0.06231 0.26953,0.373975 0.26953,0.685547 0,0.311567 0.0419,0.829053 0.125,1.140625 0.12463,0.477737 0.0413,0.624537 -0.74805,1.123047 -0.49851,0.311571 -1.24473,0.788564 -1.66015,1.058594 -0.39466,0.270025 -0.83117,0.478515 -0.97656,0.478515 -0.12463,0 -0.45725,0.228733 -0.74805,0.519531 -0.89317,0.893169 -1.37168,0.643787 -1.78711,-0.914062 -0.18694,-0.685453 -0.33237,-4.071335 -0.22852,-5.068359 0.0208,-0.08308 1.18397,-0.146485 2.61719,-0.146485 z m 36.4336,1.083985 c 0.12365,0.0052 0.28514,0.02744 0.49804,0.05859 0.47774,0.06231 2.0975,0.249846 3.57227,0.416016 3.925773,0.456969 3.739642,0.395245 4.632811,1.724609 0.810081,1.225505 1.392021,2.617405 1.205078,2.908203 -0.06231,0.08309 -3.4e-4,0.539126 0.103515,0.996094 0.789309,3.136462 0.85116,3.635012 0.498047,4.154292 -0.33234,0.49852 -0.310855,0.99703 0.02148,2.61719 0.06231,0.33234 0.08256,0.58203 0.04102,0.58203 -0.04154,0 -1.703932,0.22731 -3.71875,0.47656 l -3.654301,0.47852 -3.05468,-0.43555 c -1.66171,-0.24925 -3.07441,-0.49823 -3.13672,-0.56054 -0.0623,-0.0623 0.23034,-1.49598 0.625,-3.19922 0.5816,-2.575642 1.20446,-5.734192 1.86914,-9.597657 0.0935,-0.49851 0.12708,-0.634719 0.49805,-0.61914 z m 28.931636,6.888671 c 0.230596,-0.0744 0.420195,0.381565 0.292969,0.835938 -0.06231,0.290799 -0.228176,0.539065 -0.332031,0.539065 -0.228485,0 -0.290985,-1.100885 -0.0625,-1.308596 0.03375,-0.03375 0.06862,-0.05578 0.101562,-0.06641 z m -84.433596,4.699223 0.125,2.63672 c 0.0623,1.47477 0.0623,2.74308 0,2.82617 -0.12463,0.20771 -16.28519,-0.043 -17.82226,-0.27148 -0.78932,-0.12463 -0.93462,-0.18592 -0.62305,-0.31055 0.727,-0.27004 2.55581,-2.51435 2.92969,-3.61523 l 0.37304,-1.03711 1.6836,-0.084 c 0.91394,-0.0208 4.27849,-0.0827 7.49804,-0.10351 z m 3.17969,0 h 1.66016 c 1.45399,0 1.66211,0.04 1.66211,0.35156 0,0.20772 -0.41432,0.83176 -0.9336,1.39258 -0.51928,0.54004 -0.93554,1.10122 -0.93554,1.20508 0,0.12462 -0.16658,0.16653 -0.35352,0.125 -0.33234,-0.0831 -0.37286,0.0406 -0.31055,1.2246 0.0623,1.20474 0.0411,1.30859 -0.35351,1.30859 -0.41543,0 -0.43555,-0.10441 -0.43555,-2.80468 z m 39.67578,1.70703 c 0.11392,-0.013 0.26099,0.006 0.45313,0.0371 0.37388,0.0623 2.14069,0.27008 3.90625,0.45703 1.76556,0.18695 3.30167,0.41497 3.38476,0.49805 0.10386,0.0831 0.0836,0.35284 -0.041,0.56055 -0.18695,0.37388 -0.58123,0.43753 -3.80078,0.66601 -1.97328,0.1454 -3.782,0.29049 -4.03126,0.33203 -0.41542,0.0831 -0.43464,0.0198 -0.35156,-0.99804 0.0935,-1.18397 0.13872,-1.51379 0.48047,-1.55274 z m 9.50195,1.14258 c 0.17916,-0.0208 0.45505,0.005 0.88086,0.0781 0.60237,0.0831 1.12128,0.20845 1.1836,0.25 0.0415,0.0415 -0.45642,0.14471 -1.1211,0.20703 -1.28782,0.1454 -1.41226,0.10416 -1.24609,-0.33203 0.0415,-0.11425 0.12358,-0.18236 0.30273,-0.20313 z m 13.406254,0.0781 c 0.08308,0 0.144532,0.14509 0.144532,0.33203 -0.02077,0.85162 -0.249689,0.9149 -1.890625,0.54101 l -1.53711,-0.35351 1.558594,-0.25 c 0.851623,-0.12463 1.620754,-0.24876 1.724609,-0.26953 z m -6.736324,1.1289 c 1.32936,0.0286 2.550687,0.17005 3.828121,0.42969 0.997025,0.20771 1.806641,0.45616 1.806641,0.60156 0,0.12463 -0.124134,0.39456 -0.269531,0.62305 -0.145402,0.22848 -0.395614,0.74792 -0.541016,1.14258 -0.16617,0.39465 -0.581197,1.43353 -0.955078,2.28515 -1.183968,2.72105 -1.558717,4.40263 -1.164063,5.15039 0.228485,0.4362 0.479201,4.4043 0.271485,4.4043 -0.08308,0 -1.184122,-0.26993 -2.451169,-0.62305 -2.43025,-0.6439 -8.76659,-1.95192 -10.61524,-2.20117 -0.62314,-0.0831 -1.09961,-0.25037 -1.09961,-0.375 0,-0.1454 0.31043,-1.05819 0.70508,-2.01367 0.39466,-0.97625 1.24671,-3.36586 1.89063,-5.31836 l 1.16406,-3.53125 2.94922,-0.33203 c 1.71363,-0.18695 3.1511,-0.27076 4.48047,-0.24219 z m -9.52539,0.76172 c 0.55303,-0.0208 0.61914,0.0303 0.61914,0.14453 0,0.31157 -2.05568,6.45979 -2.82422,8.47461 -0.62314,1.62016 -0.83119,1.93288 -1.20508,1.91211 -0.22848,0 -2.07626,-0.22926 -4.07031,-0.47851 l -3.63477,-0.47657 0.0625,-1.18554 c 0.0415,-0.70623 0.22731,-1.45301 0.47656,-1.84766 0.20772,-0.37388 0.39454,-0.81111 0.39454,-0.99806 0,-0.18694 0.31237,-0.74758 0.70703,-1.24608 0.37388,-0.49851 0.74823,-1.09964 0.81054,-1.32814 0.0831,-0.22848 0.39351,-0.68523 0.70508,-1.01757 0.35311,-0.39466 0.43747,-0.56161 0.20899,-0.47852 -0.39466,0.1454 -0.62321,-0.10411 -0.45704,-0.51953 0.0831,-0.18694 0.45639,-0.33275 0.89258,-0.35352 0.41543,-0.0208 2.11759,-0.16514 3.7793,-0.31054 1.94212,-0.17656 2.98212,-0.27025 3.53516,-0.29101 z m -46.15625,1.82813 c 0.10385,0 0.29015,0.76841 0.43554,1.70312 0.27003,1.78633 0.70533,3.11514 1.22461,3.73828 0.2908,0.35311 0.25093,0.375 -0.74609,0.375 h -1.08008 v -2.9082 c 0,-1.59939 0.0829,-2.9082 0.16602,-2.9082 z m 75.912105,4.35156 c 0.02962,0.008 0.05869,0.0248 0.08984,0.0508 0.145401,0.12463 0.269531,0.52065 0.269531,0.89453 0,0.51928 -0.166825,0.78878 -0.873047,1.34961 -0.664684,0.54005 -0.829707,0.60258 -0.705078,0.29102 0.799695,-2.16282 1.011442,-2.63962 1.21875,-2.58594 z M -135.25,114.73242 c 0.32455,0.013 0.652,0.0758 0.75586,0.17969 0.0831,0.0623 -0.27114,1.59926 -0.375,1.70312 -0.0415,0.0623 -0.89165,0.0421 -1.88867,-0.041 -1.49554,-0.10386 -1.8086,-0.18772 -1.8086,-0.47852 0,-0.41542 0.68515,-0.81092 1.64063,-0.93554 0.39465,-0.0416 0.81092,-0.18592 0.93555,-0.31055 0.0935,-0.0935 0.41568,-0.13017 0.74023,-0.11719 z m 2.48828,0.80664 c 0.0513,-0.002 0.11023,0.0112 0.17774,0.0371 0.18694,0.0831 0.64422,0.20793 0.97656,0.29102 0.35311,0.0623 0.95619,0.37326 1.33008,0.66406 l 0.68554,0.54102 -1.62109,-0.10352 c -0.91394,-0.0415 -1.72427,-0.16692 -1.82813,-0.25 -0.10385,-0.10386 -0.1241,-0.43576 -0.041,-0.72656 0.0779,-0.31157 0.16647,-0.44826 0.32031,-0.45313 z m -9.00195,0.34961 c 0.0415,0 0.082,0.0824 0.082,0.20703 0,0.10386 -0.10389,0.20703 -0.22852,0.20703 -0.10385,0 -0.14434,-0.10317 -0.082,-0.20703 0.0623,-0.12463 0.1662,-0.20703 0.22852,-0.20703 z m -15.01953,0.83008 h 1.20508 1.18359 l 0.35351,0.97656 c 0.20772,0.56083 0.47889,1.55674 0.60352,2.24219 0.24925,1.2255 0.26981,1.24647 1.01758,1.37109 0.43619,0.0623 1.03804,0.37522 1.34961,0.66602 0.727,0.70623 1.14229,0.70623 1.70312,0 l 0.43555,-0.5625 0.47852,0.60351 c 0.45696,0.5816 0.53968,0.60154 1.18359,0.37305 0.39465,-0.12463 0.99845,-0.28996 1.35156,-0.37305 0.74777,-0.14539 1.43149,-0.81082 1.59766,-1.55859 0.16617,-0.727 0.95619,-1.51649 1.33008,-1.37109 0.22848,0.0831 0.27058,0.0429 0.1875,-0.18555 -0.1454,-0.39465 0.29104,-1.37196 0.51953,-1.22656 0.10386,0.0623 0.18554,0.29105 0.18554,0.51953 0,0.24926 0.14652,0.39381 0.375,0.37305 0.20772,0 0.24892,-0.0607 0.10352,-0.12305 -0.1454,-0.0416 -0.26953,-0.37469 -0.26953,-0.70703 0,-0.49851 0.0826,-0.60156 0.49805,-0.60156 0.35311,0 0.58135,0.18684 0.78906,0.62304 0.33234,0.76854 0.49808,0.7895 0.72656,0.0625 0.18694,-0.56083 0.20834,-0.56107 1.95312,-0.51953 0.95549,0.0415 2.01461,0.1037 2.32618,0.16602 0.54005,0.10385 0.58166,0.18598 0.45703,0.76758 -0.33234,1.70325 -1.8285,7.74841 -1.95313,7.87304 -0.0623,0.0623 -2.94916,0.20793 -6.41797,0.29102 l -6.29296,0.14453 0.35351,-0.74805 c 0.4362,-0.91394 0.35162,-1.03689 -0.5,-0.74609 -0.47774,0.16617 -0.85038,0.16617 -1.32812,0 -0.78931,-0.27003 -1.05947,-0.0215 -0.91407,0.83008 0.10386,0.49851 0.0194,0.56091 -0.66601,0.68554 -1.18397,0.18695 -3.9464,0.14522 -4.0918,-0.0625 -0.0623,-0.10385 -0.0408,-2.34642 0.0215,-4.98437 z m 23.59375,0.89648 c 0.15319,-0.0286 0.37788,-0.024 0.68945,0.0176 0.49851,0.0623 1.64075,0.18645 2.55469,0.26953 0.91393,0.0831 1.80648,0.16673 1.97265,0.1875 0.16617,0 0.56148,0.0417 0.87305,0.0625 0.35311,0 0.87134,0.33228 1.39063,0.85157 0.45696,0.45696 0.9764,0.83007 1.14257,0.83007 0.4362,0 0.41648,0.45812 -0.082,3.22071 -0.22848,1.24628 -0.41601,2.28392 -0.41601,2.30469 0,0.20771 -10.11651,0.83076 -10.32422,0.62304 -0.0831,-0.0831 1.35004,-6.18955 1.93164,-8.18359 0.0311,-0.0935 0.11439,-0.15504 0.26758,-0.1836 z m 11.55664,1.03125 c 0.0935,9.8e-4 0.21335,0.019 0.36914,0.0449 0.37388,0.0415 1.45343,0.18787 2.42969,0.3125 3.905,0.47774 4.77734,0.66446 4.77734,1.01757 -0.0208,0.18695 -0.47629,1.30894 -1.03711,2.51368 l -1.01758,2.17968 -2.34765,0.25 c -1.28782,0.12463 -2.86586,0.25 -3.50977,0.25 l -1.16406,0.0195 0.47851,-2.55469 c 0.24926,-1.39168 0.51848,-2.88607 0.60157,-3.32227 0.0935,-0.56082 0.13951,-0.71386 0.41992,-0.71094 z m 9.34375,1.27149 c 0.0456,-1.6e-4 0.0926,0.007 0.14453,0.0195 0.27003,0.0415 1.55859,0.29105 2.86719,0.51953 3.07415,0.56083 8.78447,1.8697 8.99218,2.05664 0.22849,0.22849 -4.56833,0.9348 -13.5,1.99414 -0.49851,0.0415 -0.89453,0.0218 -0.89453,-0.082 0,-0.0831 0.45747,-1.16316 1.03907,-2.38867 0.81787,-1.72662 1.03265,-2.11801 1.35156,-2.11914 z m 27.437498,2.05664 c 0.06231,0.0623 -0.186666,0.70588 -0.560547,1.41211 -1.059339,2.11867 -2.492745,4.54883 -2.679688,4.54883 -0.415423,0 -0.28987,-0.60311 0.3125,-1.5586 0.373882,-0.56082 0.850352,-1.41217 1.099609,-1.86914 0.540052,-1.05934 1.703497,-2.65783 1.828126,-2.5332 z m -13.664063,1.44727 c 0.129496,0.0123 0.194693,0.0431 0.205078,0.0898 0.04155,0.12463 -0.145274,0.64407 -0.394531,1.14258 -0.49851,0.95548 -2.327292,3.75955 -4.009762,6.08593 -1.10088,1.49554 -3.23919,4.25782 -3.32227,4.25782 -0.0208,0 -0.74799,-0.22874 -1.59961,-0.51953 -2.26407,-0.78931 -5.13074,-1.53702 -8.14258,-2.16016 -1.45399,-0.31157 -2.6804,-0.60371 -2.70117,-0.66602 -0.0415,-0.10386 1.26795,-2.57528 2.70117,-5.10937 0.2908,-0.54006 0.68506,-0.91425 0.95508,-0.97656 0.24926,-0.0416 2.55521,-0.33101 5.13086,-0.64258 2.57564,-0.31157 6.16822,-0.81148 7.99609,-1.12305 1.822688,-0.29599 2.793157,-0.4159 3.181645,-0.3789 z m -19.298825,2.47851 c 0.60269,-0.0276 1.00719,-0.0312 1.01757,0 0.0416,0.0831 -0.45765,1.18269 -1.10156,2.4082 -0.66468,1.24628 -1.35088,2.47217 -1.55859,2.74219 l -0.35156,0.47852 -2.32813,-0.375 c -1.86941,-0.31157 -2.30503,-0.43629 -2.20117,-0.68555 0.0623,-0.16617 0.29105,-1.14112 0.51953,-2.17969 0.22848,-1.03856 0.43626,-1.89133 0.45703,-1.91211 0.14021,-0.10904 3.7388,-0.3938 5.54688,-0.47656 z m -7.94141,0.62305 c 0.5037,0.0156 0.46271,0.11322 0.40039,0.31054 -0.0415,0.20772 -0.2486,1.10026 -0.43555,1.97266 -0.31157,1.41245 -0.41589,1.62109 -0.81054,1.62109 -0.22849,0 -2.16063,-0.18753 -4.2793,-0.41601 -2.11867,-0.22849 -4.21686,-0.43626 -4.67383,-0.45703 -0.78931,-0.0623 -0.8306,-0.0827 -0.78906,-0.72657 0.12463,-1.57862 0.24923,-1.66123 2.38867,-1.80664 1.05934,-0.0831 3.09608,-0.20864 4.5293,-0.3125 2.11867,-0.13501 3.16622,-0.20112 3.66992,-0.18554 z m -11.9375,0.62304 c 0.0831,-0.0208 0.18697,0.0204 0.22852,0.10352 0.0623,0.10386 -0.0409,0.62277 -0.20704,1.18359 l -0.29101,0.99805 -0.87305,-0.125 c -0.99702,-0.12462 -8.039,-0.4583 -14.125,-0.66602 -4.0504,-0.12462 -4.11309,-0.14387 -4.05078,-0.58007 0.0623,-0.41543 0.18766,-0.43769 2.63867,-0.5 1.43322,-0.0208 2.74204,9e-4 2.90821,0.084 0.18694,0.0831 0.43716,0.12357 0.54101,0.082 0.12463,-0.0415 3.11537,-0.18592 6.64649,-0.31054 3.55189,-0.1454 6.5009,-0.26954 6.58398,-0.26954 z m -40.17187,0.0625 2.47265,0.10352 c 1.35014,0.0623 2.5753,0.18645 2.7207,0.26953 0.12463,0.10386 0.24805,0.29139 0.24805,0.41602 0,0.1454 0.31167,0.39366 0.68555,0.53906 0.66468,0.2908 0.64518,0.29086 -1.09961,0.45703 -2.84567,0.24926 -4.3626,0.27021 -4.57031,0.0625 -0.10386,-0.10386 -0.25019,-0.56061 -0.3125,-1.01758 z m 12.66992,0.31055 h 5.44336 v 0.49805 c 0,0.45697 -0.083,0.47889 -1.70313,0.60351 -0.95548,0.0831 -2.92882,0.14453 -4.38281,0.14453 -2.6795,0 -3.15768,-0.10364 -4.50781,-1.01757 -0.20771,-0.16618 1.34924,-0.22852 5.15039,-0.22852 z m 64.55859,1.66211 c 0.0415,0 -0.0224,0.22802 -0.10547,0.49805 -0.37388,0.97625 -2.92829,5.91958 -3.11523,6.02343 -0.16617,0.10386 -1.07924,-0.16552 -1.45313,-0.43554 -0.0415,-0.0208 0.33228,-0.54021 0.85157,-1.14258 0.49851,-0.60237 1.55763,-1.97386 2.32617,-3.0332 0.76854,-1.03857 1.43378,-1.91016 1.49609,-1.91016 z m -59.61523,0.041 c 0.41542,-0.0416 0.45864,0.0829 0.5625,1.24609 0.0623,0.727 0.12376,3.13756 0.14453,5.38086 l 0.041,4.07031 -3.71679,0.14649 c -2.03559,0.0831 -5.17213,0.22693 -7,0.35156 -1.80711,0.12463 -3.36489,0.14682 -3.46875,0.043 -0.1454,-0.16617 -2.88784,-8.24771 -3.26172,-9.66016 -0.20771,-0.72699 -0.18725,-0.76724 0.33203,-0.87109 0.31157,-0.0623 1.70279,-0.16692 3.11523,-0.25 l 2.55469,-0.125 0.79102,0.85156 c 0.76854,0.83085 1.68257,1.14304 1.99414,0.64453 0.0623,-0.12463 0.30986,-0.20703 0.51758,-0.20703 0.58159,0 0.70787,-0.37472 0.33398,-0.93555 l -0.33398,-0.51953 3.46875,-0.0625 c 1.93173,-0.0208 3.69729,-0.0827 3.92578,-0.10351 z m 3.82031,0.0332 c 0.32974,-0.0234 0.84341,-0.0123 1.60156,0.0293 1.12165,0.0415 4.1131,0.14471 6.66797,0.20703 4.3412,0.10385 9.78305,0.43663 9.94922,0.58203 0.0831,0.10385 -1.99408,6.37779 -2.8457,8.62109 -0.37389,0.95548 -0.78891,1.78534 -0.95508,1.84766 -0.1454,0.0623 -1.89001,-3.7e-4 -3.86328,-0.125 -1.97328,-0.12463 -5.35861,-0.26848 -7.49805,-0.35156 l -3.90625,-0.14649 0.125,-5.10937 c 0.0831,-2.80413 0.16621,-5.23351 0.22852,-5.37891 0.0208,-0.0935 0.16634,-0.15241 0.49609,-0.17578 z m 56.603515,0.44531 0.25,0.68555 c 0.186943,0.56082 0.145556,1.05828 -0.166016,2.69922 -0.353109,1.72402 -0.519249,2.1201 -1.080079,2.66015 -0.72699,0.727 -1.53788,0.99588 -2.01562,0.70508 -0.22849,-0.1454 0.0222,-0.78925 1.35156,-3.46875 z m -36.306645,0.43555 c 0.31158,0.0415 2.55466,0.27027 4.94336,0.51953 2.40948,0.24926 4.46522,0.49894 4.58985,0.58203 0.24925,0.12463 -0.31231,2.57515 -1.5586,6.8125 -0.56082,1.89019 -0.76869,2.32583 -1.14257,2.42969 -0.22849,0.0623 -2.26256,0.20811 -4.50586,0.35351 -3.80115,0.22849 -6.83399,0.14609 -6.83399,-0.20703 0,-0.0831 0.4358,-1.20508 0.95508,-2.51367 0.54006,-1.30859 1.37063,-3.59288 1.86914,-5.04687 0.49851,-1.47477 0.95651,-2.74309 0.99805,-2.82618 0.0623,-0.0831 0.37398,-0.12428 0.68554,-0.10351 z m 11.67188,1.33008 c 0.0623,0 1.03993,0.14509 2.20312,0.33203 1.14243,0.18694 2.09713,0.37376 2.13868,0.39453 0.12462,0.10386 -4.15334,6.58482 -4.92188,7.51953 -0.47774,0.56082 -2.24482,0.72755 -2.03711,0.1875 0.33235,-0.83085 1.6002,-5.02756 2.01563,-6.62695 0.27003,-0.99702 0.53925,-1.80664 0.60156,-1.80664 z m 5.42187,0.87109 2.76368,0.58203 c 1.49553,0.33235 3.82031,0.89298 5.1289,1.2461 1.30859,0.37388 2.88716,0.85159 3.46875,1.08007 l 1.10157,0.39453 -0.95508,1.12305 c -0.64391,0.727 -1.16413,1.14153 -1.6211,1.22461 -2.28484,0.47774 -13.52111,1.99414 -14.70508,1.99414 -0.24925,0 0.10315,-0.64422 1.28711,-2.28515 0.89317,-1.26705 2.05689,-2.97065 2.57618,-3.82227 z m 23.970708,2.67969 c 0.08308,-0.0208 -0.394626,0.60255 -1.080079,1.37109 -0.685453,0.78931 -1.621156,1.76569 -2.078125,2.22266 l -0.830078,0.78906 -0.748047,-0.78906 c -0.394649,-0.45697 -0.748049,-0.87199 -0.748049,-0.95508 0,-0.18694 3.011598,-1.62109 3.406252,-1.62109 0.145402,0 0.499502,-0.16605 0.769532,-0.39454 0.49851,-0.37388 0.955481,-0.60227 1.308594,-0.62304 z m -10.746098,1.0664 c 0.10386,-0.005 0.21917,0.009 0.35938,0.0352 0.35311,0.0831 0.76937,0.27061 0.93555,0.41602 0.22848,0.24925 0.22882,0.3111 -0.10352,0.49804 -0.22848,0.10386 -0.76959,0.24895 -1.22656,0.33203 -0.45697,0.0831 -1.0169,0.20722 -1.22461,0.26954 -0.33234,0.0831 -0.26981,-0.0614 0.29101,-0.76758 0.45178,-0.57641 0.65718,-0.76763 0.96875,-0.78321 z m 2.58203,1.40625 c 0.35312,0 0.99759,0.24846 1.4961,0.60157 1.16319,0.81008 2.097809,1.8081 1.931639,2.07812 -0.270029,0.41543 -5.442739,4.88142 -7.416019,6.37696 -1.53708,1.16319 -2.28351,1.57887 -3.25976,1.82812 -1.74479,0.45697 -1.80707,0.43614 -1.08008,-0.45703 2.16022,-2.5341 4.21578,-5.23578 5.83594,-7.66602 1.70325,-2.5341 1.91059,-2.76172 2.49218,-2.76172 z m -2.0957,0.45704 c 0.20512,-0.026 0.20508,0.009 0.20508,0.082 0,0.2908 -3.6126,5.54607 -5.12891,7.45703 -2.26407,2.84567 -2.16012,2.80565 -3.24023,2.03711 -0.47774,-0.35312 -1.28931,-0.83153 -1.80859,-1.10156 l -0.91407,-0.45704 0.81055,-0.66406 c 0.99702,-0.76854 5.04777,-4.46611 5.13086,-4.67383 0.0415,-0.0623 0.5395,-0.58299 1.12109,-1.12304 0.8724,-0.81009 1.28779,-1.01637 2.38868,-1.26563 0.82046,-0.17656 1.23043,-0.26505 1.43554,-0.29101 z m -4.3125,0.79882 c 0.0883,0.0208 0.15625,0.0843 0.15625,0.17774 0,0.10385 -1.28786,1.41195 -2.8457,2.88672 -3.48958,3.26109 -4.34022,4.00939 -4.46485,3.88476 -0.24925,-0.24925 -4.46605,-1.60075 -6.83398,-2.20312 -1.41245,-0.35312 -2.61666,-0.66425 -2.6582,-0.72657 -0.0415,-0.0415 0.24863,-0.47805 0.66406,-0.97656 l 0.74805,-0.91406 2.3457,-0.24805 c 2.90799,-0.31156 12.48475,-1.68201 12.60937,-1.80664 0.0831,-0.0727 0.19102,-0.095 0.2793,-0.0742 z m -50.17383,1.89649 c 0.22492,0.0263 0.27149,0.15527 0.27149,0.48242 v 0.51953 l -3.05274,-0.0215 c -1.70324,-0.0208 -4.61176,-0.1037 -6.50195,-0.16602 -3.11569,-0.12463 -3.30292,-0.14438 -2.05664,-0.31055 0.74777,-0.0831 3.40659,-0.22941 5.91992,-0.3125 2.49256,-0.0831 4.79852,-0.1875 5.13086,-0.1875 0.11944,-0.0104 0.21409,-0.0127 0.28906,-0.004 z m 3.49024,0.0117 c 0.44139,-0.008 1.02858,0.004 1.66211,0.0351 1.24627,0.0623 3.92659,0.16496 5.9414,0.24805 2.01482,0.0623 3.98745,0.1884 4.36133,0.27148 0.70622,0.14541 -6.29427,0.43555 -10.65625,0.43555 -2.03558,0 -2.24219,-0.0427 -2.24219,-0.375 0,-0.20771 0.0615,-0.45597 0.14454,-0.53906 0.0519,-0.0415 0.34767,-0.0684 0.78906,-0.0762 z m 29.59961,0.36718 c 0.54005,0 0.60367,0.0627 0.4375,0.35352 -0.10386,0.20772 -0.43772,0.60107 -0.72852,0.87109 -0.70622,0.66468 -1.03723,0.37416 -0.64258,-0.56054 0.24926,-0.54006 0.41431,-0.66407 0.9336,-0.66407 z m -2.66016,0.2461 c 0.13729,0.0282 0.13644,0.15313 0.043,0.41797 -0.0623,0.27002 -0.14525,0.49876 -0.16602,0.51953 -0.0831,0.12463 -3.0332,-0.4574 -3.0332,-0.58203 0,-0.10386 0.5816,-0.20651 1.30859,-0.24805 0.70623,-0.0415 1.4544,-0.0847 1.66211,-0.10547 0.0779,-0.0104 0.13979,-0.0114 0.18555,-0.002 z m -9.10742,0.64844 c 1.55882,-0.036 2.66541,0.0753 5.08008,0.43359 1.86941,0.27003 3.44674,0.5412 3.48828,0.60351 0.12463,0.10386 -0.87134,2.88722 -1.39063,3.92579 -0.54005,1.05934 -4.0722,4.46506 -4.92382,4.75586 -0.8724,0.29079 -2.13955,0.0841 -1.99415,-0.31055 0.1454,-0.39466 -0.56045,-0.60349 -1.18359,-0.375 -0.27002,0.10386 -0.82995,0.16601 -1.22461,0.16601 -2.36793,-0.12462 -2.18229,-0.0828 -1.74609,-0.56054 l 0.39648,-0.43555 -0.68554,0.39453 c -0.56083,0.31157 -0.70617,0.33324 -0.85157,0.084 -0.14539,-0.20772 -0.43635,-0.25034 -1.14258,-0.14649 -0.51928,0.0831 -0.95703,0.10404 -0.95703,0.0625 0,-0.0415 0.74942,-1.47572 1.64258,-3.1582 0.91394,-1.70325 1.86917,-3.57146 2.09766,-4.17383 l 0.45703,-1.10156 1.16211,-0.082 c 0.68545,-0.0416 1.25578,-0.07 1.77539,-0.082 z m -34.40625,0.10156 0.91406,0.125 c 0.49851,0.0623 3.48925,0.16692 6.64649,0.25 l 5.73242,0.125 0.14648,2.01367 c 0.0623,1.10088 0.12305,2.74107 0.12305,3.67578 v 1.68359 l -2.49219,0.14454 c -1.3709,0.0623 -3.59322,0.18768 -4.94336,0.25 l -2.45117,0.14453 -1.70312,-3.57227 c -0.95548,-1.97327 -1.76458,-3.86297 -1.84766,-4.19531 z m 29.61914,0.084 c 0.41542,-0.0208 0.76953,1.9e-4 0.76953,0.0625 0,0.0416 -0.41626,1.05946 -0.93555,2.22266 -1.16319,2.65872 -2.6373,5.37965 -3.05273,5.6289 -0.45697,0.31157 -1.89149,-0.0206 -1.74609,-0.39453 0.1454,-0.39465 4.6e-4,-0.37546 -0.49805,0.12305 -0.47774,0.47774 -1.16258,0.49997 -5.89844,0.27148 l -2.8457,-0.125 0.125,-3.65624 c 0.0623,-1.99405 0.14524,-3.65502 0.16601,-3.67579 0.0208,-0.0415 2.99055,-0.14614 6.58399,-0.25 3.59344,-0.10385 6.89583,-0.20703 7.33203,-0.20703 z m 15.10547,1.21485 c 0.10905,-0.0312 0.20312,0.02 0.20312,0.17578 0,0.10385 -0.14437,0.2921 -0.31054,0.4375 -0.33234,0.2908 -0.37445,0.20749 -0.1875,-0.29102 0.0623,-0.17655 0.18587,-0.29111 0.29492,-0.32226 z m 1.2832,0.19726 c 0.0831,0 0.93443,0.18753 1.86914,0.41602 3.46881,0.81008 7.4375,2.13836 7.4375,2.4707 0,0.18694 -3.55243,2.92966 -5.19336,4.00977 -1.10088,0.70622 -1.28776,0.76816 -4.77734,1.18359 -4.32043,0.51928 -4.36328,0.51965 -4.36328,0.125 0,-0.16617 0.51944,-1.3711 1.14258,-2.67969 0.62313,-1.28782 1.14257,-2.43058 1.14257,-2.51367 0,-0.18694 2.55525,-3.01172 2.74219,-3.01172 z m 10.05274,3.13672 c 0.10385,-0.0208 0.76962,0.31114 1.45507,0.72656 0.66468,0.39466 1.45458,0.95582 1.72461,1.20508 l 0.47657,0.49805 -1.41211,0.3125 c -2.0979,0.47774 -7.10377,1.39062 -7.62305,1.39062 -0.33234,0 -0.0837,-0.24937 0.89258,-0.91406 0.74777,-0.51928 2.01538,-1.4335 2.80469,-2.05664 0.81008,-0.62314 1.55701,-1.16211 1.68164,-1.16211 z m 5.90039,2.28516 c 0.22848,0 0.20681,0.0625 -0.084,0.29101 -0.47774,0.35312 -0.74804,0.39308 -0.74804,0.12305 0,-0.22848 0.37506,-0.39329 0.83203,-0.41406 z m -21.54102,0.39453 c 0.0831,0 -0.14493,0.58088 -0.49805,1.28711 -0.39465,0.78931 -0.70597,1.18375 -0.78906,1.01758 -0.0831,-0.12463 -0.31111,-0.1866 -0.49804,-0.10352 -0.18695,0.0623 -0.35352,0.0426 -0.35352,-0.082 0,-0.24926 1.88941,-2.11914 2.13867,-2.11914 z m 19.48438,0.20703 c 0.0831,0 0.24913,0.14632 0.39453,0.3125 0.20771,0.24925 -10e-4,0.45678 -1.22656,1.24609 -0.81009,0.51929 -1.53606,0.9336 -1.61915,0.9336 -0.0831,0 0.39463,-0.56064 1.08008,-1.2461 0.68546,-0.68545 1.28801,-1.24609 1.3711,-1.24609 z m -1.16407,0.22851 c 0.10386,-0.0208 -0.60116,0.78938 -1.55664,1.76563 -1.70325,1.70325 -1.89165,1.84967 -5.50586,3.61523 -2.05636,0.99703 -3.94534,1.88886 -4.17382,1.95118 -0.35312,0.10385 -0.54,2.7e-4 -0.85157,-0.56055 -0.22848,-0.37388 -0.85252,-0.97625 -1.39257,-1.30859 -0.51929,-0.33234 -0.95508,-0.64277 -0.95508,-0.70508 0.0208,-0.0623 1.14205,-0.7478 2.49218,-1.53711 2.43025,-1.43322 2.53411,-1.45514 5.23438,-1.91211 1.51631,-0.27003 3.61501,-0.6641 4.63281,-0.89258 1.03856,-0.20772 1.95155,-0.39524 2.07617,-0.41602 z m -45.21875,0.81055 0.084,0.74805 c 0.0623,0.60236 -0.002,0.78819 -0.33399,0.93359 -0.24925,0.10386 -0.70548,0.35283 -1.05859,0.56055 -0.54006,0.33234 -1.08079,0.39577 -3.71875,0.375 l -3.09375,-0.0215 -0.62305,-0.9961 c -0.33234,-0.54005 -0.56036,-1.06073 -0.49804,-1.12305 0.16617,-0.16617 3.92529,-0.41353 6.8125,-0.45507 z m 3.84375,0 c 1.70325,0.0208 1.86874,0.0405 1.51563,0.31055 -0.20772,0.16617 -0.47818,0.24981 -0.58203,0.1875 -0.10386,-0.0623 -0.29015,-0.0199 -0.43555,0.084 -0.24926,0.20771 -1.30887,0.33185 -2.05664,0.26953 -0.22848,0 -0.37305,-0.18629 -0.37305,-0.43554 0,-0.39466 0.14531,-0.41602 1.93164,-0.41602 z m -14.14648,0.43555 c 0.0831,0 0.3745,0.33262 0.64453,0.74805 0.27003,0.4362 0.56021,0.9139 0.66406,1.08007 0.1454,0.24926 -0.2912,0.26988 -2.9707,0.16602 -5.00589,-0.22848 -7.35295,-0.41515 -7.16602,-0.56055 0.16617,-0.16617 4.50748,-0.89227 7.22852,-1.22461 0.81008,-0.10385 1.51652,-0.18821 1.59961,-0.20898 z m 44.45898,0.83594 c 0.10337,0.005 0.15821,0.0163 0.15821,0.0371 0,0.0415 -0.68602,0.49829 -1.4961,1.01757 -1.78633,1.10088 -3.22002,1.35058 -3.42773,0.58204 -0.12463,-0.45697 -0.22737,-0.49855 -0.9336,-0.22852 -0.31156,0.10386 -0.70656,0.0612 -1.20507,-0.14648 l -0.72657,-0.33204 1.03907,-0.16601 c 2.79893,-0.45437 5.86821,-0.79633 6.59179,-0.76367 z m -52.46289,1.28515 c 0.0649,-0.0182 0.17297,-0.0116 0.31836,0.0195 0.24926,0.0623 2.5355,0.20616 5.04883,0.35157 3.2611,0.16617 4.61099,0.31305 4.71484,0.5 0.33235,0.56082 2.13911,2.94912 2.72071,3.57226 l 0.62304,0.66406 -0.70703,0.10352 c -3.96731,0.66468 -4.23657,0.68623 -4.75586,0.47852 -1.32936,-0.5816 -7.62292,-4.96404 -8.01757,-5.56641 -0.0312,-0.0623 -0.0102,-0.10487 0.0547,-0.12305 z m 12.09571,0.56055 c 0.73738,0.0182 1.51742,0.0908 1.68359,0.20508 0.16617,0.10385 0.22762,0.20898 0.14453,0.20898 -0.37388,0 1.18384,1.20474 1.70313,1.3086 0.81008,0.16617 1.89062,1.32893 1.89062,2.03515 0,0.5816 -0.02,0.60315 -0.83008,0.47852 -0.47773,-0.0831 -1.24634,-0.0224 -1.76562,0.12304 -0.74777,0.20772 -0.99755,0.20772 -1.26758,0 -0.64391,-0.54005 -2.99219,-3.86244 -2.99219,-4.23632 0,-0.10386 0.69621,-0.14123 1.4336,-0.12305 z m 5.65039,0.20508 c 0.10385,0 0.1875,0.0844 0.1875,0.20898 0,0.10386 -0.14509,0.20703 -0.33203,0.20703 -0.16617,0 -0.24982,-0.10317 -0.1875,-0.20703 0.0623,-0.12462 0.2074,-0.20898 0.33203,-0.20898 z m 30.30078,1.1582 c 0.17655,-0.0519 0.31591,0.0363 0.58594,0.21289 0.31156,0.18694 0.831,0.58296 1.14257,0.89453 0.33234,0.2908 0.68592,0.72588 0.81055,0.9336 0.18694,0.35311 0.1441,0.35292 -0.4375,-0.0625 -0.35311,-0.24926 -0.72693,-0.41512 -0.85156,-0.33204 -0.10386,0.0623 -0.80888,0.16621 -1.55664,0.22852 -1.64093,0.1454 -1.7651,-0.12444 -0.49805,-1.24609 0.41543,-0.38427 0.62813,-0.57698 0.80469,-0.62891 z m 4.84961,3.39258 c 0.0873,0.008 0.14062,0.0412 0.14062,0.10351 0,0.0416 -0.41626,0.33154 -0.93554,0.60157 -1.0178,0.58159 -1.24616,0.43545 -0.39454,-0.25 0.35831,-0.28042 0.92754,-0.47845 1.18946,-0.45508 z m -53.92188,0.0352 c 0.10905,0 0.32568,0.0995 0.59571,0.29687 0.33234,0.24926 0.33253,0.28977 0.0625,0.31055 -0.18694,0 -0.45617,-0.14438 -0.60157,-0.31055 -0.16617,-0.19733 -0.16569,-0.29687 -0.0566,-0.29687 z m 48.97266,2.72656 c 0.12463,-0.0208 -0.0197,0.10336 -0.31055,0.26953 -0.62314,0.35311 -0.83203,0.37425 -0.83203,0.125 0,-0.16617 0.45713,-0.33222 1.14258,-0.39453 z"
         transform="matrix(22.85671,0,0,-22.85671,9785.4366,9817.0501)"
         id="path70"
         inkscape:connector-curvature="0" />
      <path
         id="path72"
         d="m 5663.5269,9317.9664 c 0,-0.95 3.3233,-3.323 7.5962,-4.748 3.7981,-1.424 5.6972,-0.949 4.2729,1.899 -2.8486,4.748 -11.8691,6.647 -11.8691,2.849 z"
         inkscape:connector-curvature="0"
         style="fill:#008000;stroke-width:0.47476381" />
      <path
         id="path74"
         d="m 5276.5944,9343.6034 c -1.4243,-2.374 0.4748,-4.747 4.2729,-4.747 3.7981,0 8.5457,2.373 9.97,4.747 1.4243,2.849 -0.4748,4.748 -4.2729,4.748 -3.7981,0 -8.5457,-1.899 -9.97,-4.748 z"
         inkscape:connector-curvature="0"
         style="fill:#008000;stroke-width:0.47476381" />
      <path
         id="path76"
         d="m 4880.1666,9222.5384 c 3.3234,-3.798 11.3943,-7.121 18.5158,-7.121 11.8691,0.475 11.8691,0.475 3.3233,7.121 -5.2224,3.798 -13.7681,7.122 -18.5157,7.122 -7.5963,0 -8.071,-1.424 -3.3234,-7.122 z"
         inkscape:connector-curvature="0"
         style="fill:#008000;stroke-width:0.47476381" />
      <path
         id="path78"
         d="m 4811.8006,9147.0514 c 3.3234,-8.546 23.2634,-10.445 28.0111,-2.849 1.4243,2.849 -1.4243,4.748 -6.6467,4.748 -4.7477,0 -12.8186,1.424 -16.6167,2.849 -5.6972,2.373 -7.1215,0.949 -4.7477,-4.748 z"
         inkscape:connector-curvature="0"
         style="fill:#008000;stroke-width:0.47476381" />
      <path
         id="path80"
         d="m 5193.5107,9224.9124 c 0,-2.374 2.3738,-4.747 4.7477,-4.747 2.8485,0 4.7476,2.373 4.7476,4.747 0,2.849 -1.8991,4.748 -4.7476,4.748 -2.3739,0 -4.7477,-1.899 -4.7477,-4.748 z"
         inkscape:connector-curvature="0"
         style="fill:#008000;stroke-width:0.47476381" />
      <path
         id="path82"
         d="m 5214.8751,9215.4174 c 1.4243,-2.374 3.7981,-4.748 5.2224,-4.748 0.9495,0 1.8991,2.374 1.8991,4.748 0,2.849 -2.3739,4.748 -5.2224,4.748 -2.3739,0 -3.3234,-1.899 -1.8991,-4.748 z"
         inkscape:connector-curvature="0"
         style="fill:#008000;stroke-width:0.47476381" />
      <path
         id="path84"
         d="m 5048.233,9178.8604 c -8.071,-7.596 -13.2934,-12.819 -12.3439,-12.344 1.4243,0.95 5.2224,-0.949 8.071,-3.323 6.172,-5.222 22.3139,9.495 24.213,21.364 1.4243,10.445 -3.7981,8.546 -19.9401,-5.697 z"
         inkscape:connector-curvature="0"
         style="fill:#008000;stroke-width:0.47476381" />
      <path
         id="path86"
         d="m 6255.0826,8609.6187 c -4.2729,-10.4448 1.4243,-15.1924 6.6467,-6.6467 5.6972,9.0205 5.6972,14.2429 0.4748,14.2429 -2.3738,0 -5.6972,-3.3233 -7.1215,-7.5962 z"
         inkscape:connector-curvature="0"
         style="fill:#008000;stroke-width:0.47476381" />
      <path
         id="path88"
         d="m 6159.6551,8606.2954 c -6.6467,-5.2225 -7.1215,-7.5963 -2.3738,-10.4449 5.2224,-3.3233 13.7681,4.2729 14.2429,13.2934 0,4.7477 -1.4243,4.2729 -11.8691,-2.8485 z"
         inkscape:connector-curvature="0"
         style="fill:#008000;stroke-width:0.47476381" />
      <path
         id="path90"
         d="m 6198.111,8594.901 c -5.2224,-5.2224 -2.8486,-10.9195 4.2728,-10.9195 3.7981,0 7.1215,1.899 7.1215,4.2728 0,6.172 -7.5962,10.4448 -11.3943,6.6467 z"
         inkscape:connector-curvature="0"
         style="fill:#008000;stroke-width:0.47476381" />
      <path
         id="path92"
         d="m 4128.6155,8632.8821 c -1.8991,-1.4243 -3.3234,-5.2224 -3.3234,-8.071 0,-2.8485 2.3739,-2.3738 5.6972,0.9496 2.8486,2.8486 4.2729,6.6467 3.3233,8.071 -1.4242,1.4242 -4.2728,0.9495 -5.6971,-0.9496 z"
         inkscape:connector-curvature="0"
         style="fill:#008000;stroke-width:0.47476381" />
      <path
         id="path94"
         d="m 4699.7564,8436.3299 c 0,-2.3738 2.3738,-3.3233 4.7476,-1.899 2.8486,1.4242 4.7476,3.7981 4.7476,5.2224 0,0.9495 -1.899,1.899 -4.7476,1.899 -2.3738,0 -4.7476,-2.3738 -4.7476,-5.2224 z"
         inkscape:connector-curvature="0"
         style="fill:#008000;stroke-width:0.47476381" />
      <path
         id="path96"
         d="m 4095.382,8272.5364 c -6.6467,-6.6467 6.6467,-20.8896 17.0915,-18.9906 5.6972,1.4243 11.3943,2.3739 12.3439,2.3739 0.9495,0.4747 -1.8991,4.7476 -6.6467,9.97 -8.5458,9.4953 -17.0915,11.8691 -22.7887,6.6467 z"
         inkscape:connector-curvature="0"
         style="fill:#008000;stroke-width:0.47476381" />
      <path
         id="path98"
         d="m 4438.6363,8173.3108 c -3.7982,-4.2729 -3.7982,-7.1215 -0.9496,-7.1215 5.6972,0 12.3439,9.0205 9.0205,12.3439 -0.9495,0.9495 -4.7476,-0.9496 -8.0709,-5.2224 z"
         inkscape:connector-curvature="0"
         style="fill:#008000;stroke-width:0.47476381" />
      <path
         id="path100"
         d="m 5929.3946,8142.4511 c 0,-2.3738 2.3739,-4.7476 4.7477,-4.7476 2.8486,0 4.7476,2.3738 4.7476,4.7476 0,2.8486 -1.899,4.7476 -4.7476,4.7476 -2.3738,0 -4.7477,-1.899 -4.7477,-4.7476 z"
         inkscape:connector-curvature="0"
         style="fill:#008000;stroke-width:0.47476381" />
      <path
         id="path102"
         d="m 5896.1612,8107.3186 c 0,-3.7981 2.3738,-8.5458 4.7476,-9.9701 2.8486,-1.4243 4.7476,0.4748 4.7476,4.2729 0,3.7981 -1.899,8.5458 -4.7476,9.9701 -2.3738,1.4242 -4.7476,-0.4748 -4.7476,-4.2729 z"
         inkscape:connector-curvature="0"
         style="fill:#008000;stroke-width:0.47476381" />
      <path
         id="path104"
         d="m 4443.3839,8112.0662 c 0,-4.2729 2.3738,-7.5962 4.7476,-7.5962 2.8486,0 4.7477,1.8991 4.7477,4.2729 0,2.8486 -1.8991,6.1719 -4.7477,7.5962 -2.3738,1.4243 -4.7476,-0.4748 -4.7476,-4.2729 z"
         inkscape:connector-curvature="0"
         style="fill:#008000;stroke-width:0.47476381" />
      <path
         id="path106"
         d="m 4416.7971,7962.9904 c -8.5457,-5.6972 -11.3943,-24.6877 -3.7981,-24.6877 3.7981,0 8.071,2.8485 9.4953,6.6467 3.7981,10.4448 0.4747,22.3139 -5.6972,18.041 z"
         inkscape:connector-curvature="0"
         style="fill:#008000;stroke-width:0.47476381" />
      <path
         id="path108"
         d="m 5729.5191,7600.2708 c -5.6972,-10.9195 -5.6972,-10.9195 4.7476,-1.899 10.9196,9.97 12.3439,12.3438 5.2224,12.3438 -2.3738,0 -7.1214,-4.7476 -9.97,-10.4448 z"
         inkscape:connector-curvature="0"
         style="fill:#008000;stroke-width:0.47476381" />
      <path
         id="path110"
         d="m 5652.6073,7594.0989 c -1.899,-5.2224 -4.7476,-12.8186 -6.1719,-16.6167 -2.3738,-5.6972 -1.4243,-5.6972 5.2224,0.4747 4.2729,4.2729 7.1215,11.8691 6.1719,16.6168 -1.899,8.5457 -1.899,8.5457 -5.2224,-0.4748 z"
         inkscape:connector-curvature="0"
         style="fill:#008000;stroke-width:0.47476381" />
      <path
         id="path112"
         d="m 5668.7493,7567.5121 c -6.1719,-2.3738 -10.4448,-5.6971 -9.0205,-6.6467 2.8486,-2.8486 27.5363,5.6972 27.5363,9.4953 0,3.3234 -5.2224,2.3738 -18.5158,-2.8486 z"
         inkscape:connector-curvature="0"
         style="fill:#008000;stroke-width:0.47476381" />
      <path
         id="path114"
         d="m 6275.9722,7812.4903 c -3.7981,-4.2729 -3.7981,-7.1215 -0.9495,-7.1215 5.6972,0 12.3439,9.0205 9.0205,12.3439 -0.9495,0.9495 -4.7476,-0.9496 -8.071,-5.2224 z"
         inkscape:connector-curvature="0"
         style="fill:#008000;stroke-width:0.47476381" />
      <path
         id="path116"
         d="m 5853.9072,7725.1337 c -2.8486,-5.2224 -3.3234,-10.4448 -0.9495,-11.8691 2.3738,-1.4243 5.2224,1.8991 6.6467,7.5962 3.7981,14.2429 0.4747,16.6168 -5.6972,4.2729 z"
         inkscape:connector-curvature="0"
         style="fill:#008000;stroke-width:0.47476381" />
      <path
         id="path118"
         d="m 5869.0996,7711.8403 c -1.899,-4.2729 -0.4747,-9.0205 2.3739,-9.97 3.3233,-0.9495 5.6971,-4.2729 5.6971,-7.5962 0,-7.1215 37.0316,-31.3345 48.4259,-31.3345 10.9196,0 44.1531,13.7682 40.8297,16.6168 -0.9495,1.4243 -14.7177,2.8486 -30.3849,2.8486 -23.2634,0.4747 -29.9101,2.8485 -38.4558,12.3438 -6.172,6.172 -10.9196,14.7177 -10.9196,18.5158 0,9.4953 -13.7682,8.5458 -17.5663,-1.4243 z"
         inkscape:connector-curvature="0"
         style="fill:#008000;stroke-width:0.47476381" />
      <path
         id="path120"
         d="m 6304.4581,7668.1621 c 0,-5.2225 -1.4243,-12.3439 -2.8486,-16.6168 -1.8991,-4.7476 0,-8.5457 4.7476,-10.4448 11.3943,-4.2729 13.2934,-0.4748 9.97,18.9906 -3.7981,18.041 -11.869,23.7382 -11.869,8.071 z"
         inkscape:connector-curvature="0"
         style="fill:#008000;stroke-width:0.47476381" />
      <path
         id="path122"
         d="m 6375.6726,7622.5847 c 0,-8.5457 9.0205,-18.9905 12.3439,-15.1924 1.899,1.899 0,7.1214 -4.2729,11.3943 -4.2729,4.7477 -8.071,6.1719 -8.071,3.7981 z"
         inkscape:connector-curvature="0"
         style="fill:#008000;stroke-width:0.47476381" />
      <path
         id="path124"
         d="m 6966.2788,7754.0943 c -1.4243,-4.2729 -4.7476,-11.8691 -7.1214,-16.142 -6.172,-12.3438 -5.2224,-18.041 2.8485,-15.1924 3.7981,1.899 7.1215,6.1719 7.1215,9.4953 0,3.7981 3.3233,8.071 7.1215,9.4952 9.4952,3.7982 9.0205,14.243 0,18.0411 -4.7477,1.4243 -8.5458,-0.4748 -9.9701,-5.6972 z"
         inkscape:connector-curvature="0"
         style="fill:#008000;stroke-width:0.47476381" />
      <path
         id="path126"
         d="m 6921.651,7724.6589 c 0,-6.1719 2.3738,-9.4952 6.1719,-8.0709 2.8486,0.9495 5.6972,4.7476 5.6972,8.0709 0,3.3234 -2.8486,7.1215 -5.6972,8.5458 -3.7981,0.9495 -6.1719,-2.3738 -6.1719,-8.5458 z"
         inkscape:connector-curvature="0"
         style="fill:#008000;stroke-width:0.47476381" />
      <path
         id="path128"
         d="m 6924.0248,7626.3828 c -5.2224,-1.4243 -11.8691,-5.2224 -14.2429,-8.5457 -2.8486,-3.3234 -13.7681,-7.1215 -24.6877,-8.071 -16.6167,-1.8991 -20.8896,-0.9495 -22.7887,6.1719 -1.899,5.6972 -5.2224,7.5963 -8.5457,5.6972 -9.9701,-6.1719 -18.9906,-7.5962 -42.254,-7.1215 -22.7887,0.4748 -31.8092,-6.6467 -11.8691,-9.4952 17.0915,-2.3739 12.8186,-15.6672 -5.2224,-15.6672 -8.5457,0 -17.0915,-2.8486 -19.4653,-6.6467 -2.3738,-3.7981 -7.1215,-5.2224 -10.9196,-3.7981 -3.7981,1.4242 -9.97,0.4747 -13.7681,-1.8991 -5.6972,-3.7981 -5.6972,-4.7476 0.4747,-8.5458 4.2729,-3.3233 9.0206,-2.8485 13.2934,0.4748 4.7477,4.2729 7.5962,3.7981 10.4448,-0.4748 2.3738,-3.7981 6.172,-4.7476 9.9701,-2.3738 3.7981,1.8991 18.5158,3.3234 33.2334,2.8486 17.5663,-0.9495 35.1326,1.8991 50.325,7.5962 12.3439,5.2224 26.5868,7.5963 31.3344,6.172 11.8691,-4.2729 50.7997,5.2224 50.7997,12.3438 0,2.8486 3.7982,6.6467 9.0206,8.5458 6.1719,1.899 8.0709,5.6971 6.1719,14.2429 -1.4243,9.97 -4.7477,11.8691 -17.0915,11.3943 -8.071,-0.4747 -18.9906,-1.4243 -24.213,-2.8486 z"
         inkscape:connector-curvature="0"
         style="fill:#008000;stroke-width:0.47476381" />
      <path
         id="path130"
         d="m 6726.9978,7567.9869 c 0,-5.2224 2.3739,-9.4953 4.7477,-9.4953 2.8486,0 4.7476,4.2729 4.7476,9.4953 0,5.2224 -1.899,9.4953 -4.7476,9.4953 -2.3738,0 -4.7477,-4.2729 -4.7477,-9.4953 z"
         inkscape:connector-curvature="0"
         style="fill:#008000;stroke-width:0.47476381" />
      <path
         id="path132"
         d="m 6693.7644,7567.9869 c -5.2224,-3.3234 -4.2729,-5.2224 6.6467,-9.0205 15.1924,-6.172 22.7886,-3.3234 18.5158,6.6467 -2.8486,8.071 -14.7177,9.0205 -25.1625,2.3738 z"
         inkscape:connector-curvature="0"
         style="fill:#008000;stroke-width:0.47476381" />
      <path
         id="path134"
         d="m 6494.3636,7605.968 c 0,-1.8991 4.2729,-4.7476 9.4953,-6.1719 5.2224,-1.4243 9.4952,-0.9496 9.4952,1.4243 0,1.899 -4.2728,4.7476 -9.4952,6.1719 -5.2224,1.4243 -9.4953,0.9495 -9.4953,-1.4243 z"
         inkscape:connector-curvature="0"
         style="fill:#008000;stroke-width:0.47476381" />
      <path
         id="path136"
         d="m 6534.7185,7586.9774 c 1.4243,-2.3738 7.5962,-4.7476 13.2934,-4.7476 8.5457,0 9.0205,0.9495 3.3233,4.7476 -9.4952,6.172 -20.4148,6.172 -16.6167,0 z"
         inkscape:connector-curvature="0"
         style="fill:#008000;stroke-width:0.47476381" />
      <path
         id="path138"
         d="m 7157.1339,7682.405 c -1.8991,-3.3234 -2.3739,-7.1215 -0.9496,-8.5458 4.2729,-4.2729 9.0206,1.8991 6.6467,8.5458 -1.899,5.2224 -2.8486,5.2224 -5.6971,0 z"
         inkscape:connector-curvature="0"
         style="fill:#008000;stroke-width:0.47476381" />
      <path
         id="path140"
         d="m 5513.0268,7408.4662 c -7.1215,-7.1214 -8.071,-16.1419 -1.8991,-16.1419 3.7981,0 11.3943,19.4653 8.5458,21.8391 -0.4748,0.4748 -3.7981,-1.899 -6.6467,-5.6972 z"
         inkscape:connector-curvature="0"
         style="fill:#008000;stroke-width:0.47476381" />
      <path
         id="path142"
         d="m 5494.9857,7368.5861 c 1.4243,-2.3738 3.7982,-4.7477 5.2224,-4.7477 0.9496,0 1.8991,2.3739 1.8991,4.7477 0,2.8486 -2.3738,4.7476 -5.2224,4.7476 -2.3738,0 -3.3233,-1.899 -1.8991,-4.7476 z"
         inkscape:connector-curvature="0"
         style="fill:#008000;stroke-width:0.47476381" />
      <path
         id="path144"
         d="m 6242.7388,7432.6792 c 0,-3.7981 2.3738,-7.1215 4.7476,-7.1215 2.8486,0 4.7476,3.3234 4.7476,7.1215 0,3.7981 -1.899,7.1215 -4.7476,7.1215 -2.3738,0 -4.7476,-3.3234 -4.7476,-7.1215 z"
         inkscape:connector-curvature="0"
         style="fill:#008000;stroke-width:0.47476381" />
      <path
         id="path148"
         d="m 6159.6551,6827.3553 c -1.8991,-2.8485 2.3738,-4.7476 9.4953,-4.7476 7.1214,0 11.3943,1.8991 9.4952,4.7476 -1.4243,2.8486 -5.6971,4.7477 -9.4952,4.7477 -3.7981,0 -8.071,-1.8991 -9.4953,-4.7477 z"
         inkscape:connector-curvature="0"
         style="fill:#008000;stroke-width:0.47476381" />
      <path
         id="path150"
         d="m 6971.5012,6309.388 c -1.899,-2.8486 -2.3738,-5.6972 -0.9495,-7.1214 3.3233,-3.3234 17.5662,3.3233 17.5662,8.0709 0,6.172 -12.8186,5.2224 -16.6167,-0.9495 z"
         inkscape:connector-curvature="0"
         style="fill:#008000;stroke-width:0.47476381" />
      <path
         id="path152"
         d="m 6043.338,9634.1594 c 3.7981,-2.374 19.94,-5.698 35.6072,-7.597 35.6073,-3.323 20.4149,4.273 -16.6167,8.546 -16.6167,1.899 -23.7382,1.424 -18.9905,-0.949 z"
         inkscape:connector-curvature="0"
         style="fill:#008000;stroke-width:0.47476381" />
      <path
         id="path154"
         d="m 6259.3555,9586.2074 c 13.2934,-2.373 31.3344,-5.222 40.3549,-7.121 14.2429,-2.374 15.1925,-2.374 5.2224,1.899 -6.6467,2.849 -24.6877,6.172 -40.3549,7.122 -28.9606,1.899 -28.9606,1.899 -5.2224,-1.9 z"
         inkscape:connector-curvature="0"
         style="fill:#008000;stroke-width:0.47476381" />
      <path
         id="path156"
         d="m 4312.8238,6452.2919 c 4.7477,-5.2224 9.4953,-9.4953 10.9196,-9.4953 1.4243,0 -1.4243,4.2729 -6.1719,9.4953 -4.7477,5.2224 -9.4953,9.4953 -10.9196,9.4953 -1.4243,0 1.4243,-4.2729 6.1719,-9.4953 z"
         inkscape:connector-curvature="0"
         style="fill:#008000;stroke-width:0.47476381" />
      <path
         id="path158"
         d="m 4336.562,6423.8061 c 4.7477,-5.2224 9.4953,-9.4953 10.9196,-9.4953 1.4243,0 -1.4243,4.2729 -6.1719,9.4953 -4.7477,5.2224 -9.4953,9.4953 -10.9196,9.4953 -1.4243,0 1.4243,-4.2729 6.1719,-9.4953 z"
         inkscape:connector-curvature="0"
         style="fill:#008000;stroke-width:0.47476381" />
      <path
         id="path160"
         d="m 4348.4311,6407.6641 c 0,-0.9495 3.7981,-4.7476 8.5458,-8.071 7.1214,-6.1719 7.5962,-5.6971 1.4243,1.8991 -6.172,7.5962 -9.9701,9.97 -9.9701,6.1719 z"
         inkscape:connector-curvature="0"
         style="fill:#008000;stroke-width:0.47476381" />
      <path
         id="path162"
         d="m 7172.8011,6330.2776 -16.142,-18.041 18.041,16.142 c 9.4953,9.0205 17.5663,17.0915 17.5663,18.041 0,3.7981 -3.7981,0 -19.4653,-16.142 z"
         inkscape:connector-curvature="0"
         style="fill:#008000;stroke-width:0.47476381" />
      <path
         id="path164"
         d="m 4476.6174,6269.5078 c 6.1719,-6.6466 12.3438,-11.869 13.2933,-11.869 1.4243,0 -2.3738,5.2224 -8.5457,11.869 -6.1719,6.6467 -12.3439,11.8691 -13.2934,11.8691 -1.4243,0 2.3738,-5.2224 8.5458,-11.8691 z"
         inkscape:connector-curvature="0"
         style="fill:#008000;stroke-width:0.47476381" />
      <path
         id="path166"
         d="m 7101.5865,6259.063 c -6.1719,-7.5962 -5.6972,-8.0709 1.8991,-1.899 4.2728,3.3233 8.0709,7.1214 8.0709,8.071 0,3.7981 -3.7981,1.4243 -9.97,-6.172 z"
         inkscape:connector-curvature="0"
         style="fill:#008000;stroke-width:0.47476381" />
    </g>
    <text
       xml:space="preserve"
       style="font-style:normal;font-weight:normal;font-size:17.6558876px;line-height:1.25;font-family:sans-serif;letter-spacing:0px;word-spacing:0px;fill:#008000;fill-opacity:1;stroke:none;stroke-width:0.44139719;"
       x="12.428077"
       y="253.67186"
       id="text230"><tspan
         sodipodi:role="line"
         x="12.428077"
         y="253.67186"
         style="font-style:normal;font-variant:normal;font-weight:normal;font-stretch:normal;font-family:'MS Gothic';-inkscape-font-specification:'MS Gothic';stroke-width:0.44139719;fill:#008000;"
         id="tspan232"
         dy="7.6833935">EN EL</tspan><tspan
         sodipodi:role="line"
         x="12.428077"
         y="277.0137"
         style="font-style:normal;font-variant:normal;font-weight:normal;font-stretch:normal;font-family:'MS Gothic';-inkscape-font-specification:'MS Gothic';stroke-width:0.44139719;fill:#008000;"
         id="tspan3999">MUNDO</tspan></text>
  </g>
</svg>
