<?xml version="1.0" encoding="UTF-8" standalone="no"?>
<svg
   xmlns:dc="http://purl.org/dc/elements/1.1/"
   xmlns:cc="http://creativecommons.org/ns#"
   xmlns:rdf="http://www.w3.org/1999/02/22-rdf-syntax-ns#"
   xmlns:svg="http://www.w3.org/2000/svg"
   xmlns="http://www.w3.org/2000/svg"
   xmlns:sodipodi="http://sodipodi.sourceforge.net/DTD/sodipodi-0.dtd"
   xmlns:inkscape="http://www.inkscape.org/namespaces/inkscape"
   viewBox="0 0 512 512"
   version="1.1"
   id="svg4"
   sodipodi:docname="user.svg"
   inkscape:version="0.92.3 (2405546, 2018-03-11)">
  <metadata
     id="metadata10">
    <rdf:RDF>
      <cc:Work
         rdf:about="">
        <dc:format>image/svg+xml</dc:format>
        <dc:type
           rdf:resource="http://purl.org/dc/dcmitype/StillImage" />
      </cc:Work>
    </rdf:RDF>
  </metadata>
  <defs
     id="defs8" />
  <sodipodi:namedview
     pagecolor="#ffffff"
     bordercolor="#666666"
     borderopacity="1"
     objecttolerance="10"
     gridtolerance="10"
     guidetolerance="10"
     inkscape:pageopacity="0"
     inkscape:pageshadow="2"
     inkscape:window-width="1366"
     inkscape:window-height="705"
     id="namedview6"
     showgrid="false"
     inkscape:zoom="0.4609375"
     inkscape:cx="218.0339"
     inkscape:cy="256"
     inkscape:window-x="-8"
     inkscape:window-y="-8"
     inkscape:window-maximized="1"
     inkscape:current-layer="svg4" />
  <path
     d="M423.309 291.025L402.221 285C431.798 243.89 436 202.294 436 180 436 80.649 355.484 0 256 0 156.649 0 76 80.516 76 180c0 22.299 4.198 63.884 33.779 105l-21.088 6.025C21.28 310.285 0 371.59 0 408.605v25.681C0 477.138 34.862 512 77.714 512h356.571C477.138 512 512 477.138 512 434.286v-25.681c0-36.247-20.725-98.161-88.691-117.58zM256 48c72.902 0 132 59.099 132 132s-59.098 132-132 132-132-59.099-132-132S183.098 48 256 48zm208 386.286c0 16.41-13.304 29.714-29.714 29.714H77.714C61.304 464 48 450.696 48 434.286v-25.681c0-33.167 21.987-62.316 53.878-71.427l46.103-13.172C162.683 335.058 200.427 360 256 360s93.317-24.942 108.019-35.994l46.103 13.172C442.013 346.29 464 375.438 464 408.605v25.681z"
     id="path2"
     style="fill:#ffffff" />
</svg>
